<?xml version="1.0" encoding="UTF-8"?>
<svg id="Capa_2" xmlns="http://www.w3.org/2000/svg" viewBox="0 0 161.89 174.75">
  <defs>
    <style>
      .cls-1 {
        fill: #e29879;
      }

      .cls-2 {
        fill: #6895ce;
      }

      .cls-3 {
        fill: #301c1b;
      }

      .cls-4 {
        fill: #fff;
      }

      .cls-5 {
        fill: none;
      }

      .cls-6 {
        fill: #100b0b;
      }

      .cls-7 {
        opacity: .36;
      }

      .cls-8 {
        fill: #291513;
      }

      .cls-9 {
        fill: #b28a74;
      }

      .cls-10 {
        fill: #f8fbf9;
      }

      .cls-11 {
        fill: #b0368c;
      }

      .cls-12 {
        fill: #e2af8d;
      }

      .cls-13 {
        fill: #5d1e57;
      }
    </style>
  </defs>
  <g id="rev">
    <path class="cls-8" d="M69.82,7.24S5.83.45,13.89,77.6c0,0-27.02,40.27-5.69,55.32,0,0-.47,13.1,13.27,16.01,0,0-3.79-3.88-2.37-11.64,0,0,.47,10.67,8.53,12.13,0,0-1.9-3.4-2.37-7.76,0,0,9.01,23.29,51.19,22.32,42.19-.97,56.99-18.32,56.99-18.32,7.9-12.81,11.96-16.44,13.95-15.68,2.76,1.06,1.32,10.49,4.03,11.09,1.33.29,2.8-1.71,4.34-3.83,3.24-4.48,6.06-8.37,6.12-13.42.09-8.69-8.06-16.98-8.06-16.98h0s11.27-61.25-16.23-88.91c-4.02-4.04-13.73-13.71-29.74-16.9-18.41-3.67-33.26,3.62-38.05,6.23Z"/>
    <path class="cls-6" d="M149.7,131.95c2.11-10.67,1.35-22.53-6.41-33.28-20.9-28.96-122.7-11.64-122.7-11.64,0,0-15.87,40.77-.83,61.34.63.2,1.28.38,1.98.53,0,0-3.79-3.88-2.37-11.65,0,0,.47,10.68,8.53,12.13,0,0-1.9-3.4-2.37-7.76,0,0,9.01,23.29,51.19,22.32,42.19-.97,56.99-18.32,56.99-18.32,0,0,10.94-2.27,15.99-13.66Z"/>
    <path class="cls-6" d="M23.49,75.41c-8.23,14.27-18.17,28.86-18.09,53.84.22.29.44.6.66.91.23.31.47.62.69.91-.08-1.15-.12-2.35-.16-3.57-.54-24.39,9.84-35.88,17.82-50.29"/>
    <g id="torso">
      <path class="cls-5" d="M77.47,154.05c1.53,1.16,2.96,2.06,4.21,2.76.98-.5,2.19-1.21,3.49-2.17-1.42-1.48-2.78-3.26-3.99-5.24-1.12,1.76-2.38,3.33-3.71,4.66Z"/>
      <path class="cls-4" d="M72.58,149.63c-.18-.19-.31-.33-.41-.44,0,0-.1-.11-.19-.22-.04-.04-7.11-8.56-4.78-13.29,0,0,0,0,0-.01-1.59.19-3.13.45-4.62.81-2.86,3.6-1.71,19.97,5.31,21.77,2.84.73,6.39-1.01,9.57-4.2-1.56-1.18-3.22-2.63-4.89-4.42Z"/>
      <path class="cls-4" d="M89.45,150.58c-1.4,1.7-2.88,3.03-4.28,4.06,3.04,3.16,6.34,4.94,9.03,4.29,6.93-1.67,7.38-18.9,5.01-22.14-1.55-.38-3.14-.67-4.74-.89,2.93,5.13-4.24,13.71-5.02,14.67Z"/>
      <path class="cls-12" d="M71.99,148.97c.09.11.19.22.19.22.1.11.23.26.41.44,3.31,3.55,6.58,5.77,9.1,7.18,2.03-1.04,5.07-2.94,7.76-6.23.79-.96,7.96-9.54,5.02-14.67-4.68-.64-9.46-.68-13.52-.71-4.65-.03-9.34-.05-13.73.47,0,0,0,0,0,.01-2.34,4.73,4.74,13.25,4.78,13.29Z"/>
      <path class="cls-12" d="M54.37,154.79c-.74-4.53-1.72-8.61-2.77-12.21-.06.06-.12.12-.17.18-2.28,2.58-4.05,7.57-7.89,17.44-2.24,5.77-3.82,10.65-4.85,14.04,3.89.03,9.77.06,16.99.06.15-5.51-.1-12.13-1.31-19.52Z"/>
      <path class="cls-12" d="M116.95,157.19c-4-10.84-4.2-11.62-4.97-12.69-.36-.49-.74-.95-1.14-1.39-.1-.09-.2-.19-.33-.32-.23-.22-.53-.49-.89-.81-1.55,3.39-3.34,8.31-4.09,14.47-.96,7.79.15,14.22,1.18,18.28,4.55-.04,10.01-.15,16.24-.42-1.3-3.93-3.33-9.89-6-17.13Z"/>
      <g>
        <path class="cls-13" d="M101.33,166.91l.22-.44c.57-1.14-.27-2.47-1.55-2.45h-.49s-.35-.33-.35-.33c-.91-.89-2.44-.5-2.81.71l-.14.47-.43.22c-1.13.59-1.23,2.16-.19,2.89l.4.28.08.48c.21,1.26,1.68,1.84,2.69,1.07l.39-.29.48.07c1.26.19,2.27-1.02,1.85-2.23l-.16-.46ZM98.45,168.09c-.76,0-1.37-.61-1.37-1.37s.61-1.37,1.37-1.37,1.37.61,1.37,1.37-.61,1.37-1.37,1.37Z"/>
        <circle class="cls-11" cx="98.45" cy="166.72" r="1.37"/>
      </g>
      <g>
        <path class="cls-2" d="M108.29,140.82c-.29.66-.99,1.12-1.8,1l-.48-.07-.39.29c-1.01.77-2.48.18-2.69-1.07l-.08-.48-.4-.28c-.88-.61-.93-1.81-.27-2.53-.97-.34-1.96-.64-2.98-.89,2.37,3.24,1.92,20.47-5.01,22.14-2.69.65-5.99-1.13-9.03-4.29-1.3.96-2.51,1.67-3.49,2.17-1.25-.7-2.68-1.6-4.21-2.76-3.18,3.19-6.73,4.93-9.57,4.2-7.02-1.8-8.17-18.17-5.31-21.77-1.9.46-3.71,1.09-5.39,1.93,0,.24-.05.49-.17.74l-.22.44.16.46c.42,1.2-.59,2.42-1.85,2.23l-.48-.07-.39.29c-.75.57-1.75.39-2.31-.25-.11.12-.23.22-.34.34,1.05,3.6,2.03,7.68,2.77,12.21,1.21,7.38,1.46,14.01,1.31,19.52.55,0,1.11,0,1.67,0l-.15-.11c-1.04-.73-.94-2.3.19-2.89l.43-.22.14-.47c.37-1.22,1.9-1.61,2.81-.71l.35.34h.49c1.27-.04,2.12,1.3,1.55,2.44l-.22.44.16.46c.08.24.1.49.07.72,7.33-.01,9.37-.05,14.97,0,11.77.11,13.47.38,22.26.43,1.83.01,3.95,0,6.3,0-1.04-4.05-2.14-10.49-1.18-18.28.76-6.16,2.55-11.09,4.09-14.47.36.32.66.59.89.81.13.12.24.23.33.32-.78-.86-1.63-1.61-2.55-2.29Z"/>
        <path class="cls-13" d="M102.45,140.21l.4.28.08.48c.21,1.26,1.68,1.84,2.69,1.07l.39-.29.48.07c.81.12,1.51-.34,1.8-1-.58-.43-1.19-.82-1.82-1.18-.24.4-.67.68-1.18.68-.76,0-1.37-.61-1.37-1.37,0-.2.04-.38.12-.55-.61-.26-1.23-.5-1.86-.72-.67.72-.61,1.92.27,2.53Z"/>
        <path class="cls-11" d="M105.3,140.31c.5,0,.94-.27,1.18-.68-.78-.46-1.59-.87-2.43-1.24-.07.17-.12.35-.12.55,0,.76.61,1.37,1.37,1.37Z"/>
        <path class="cls-13" d="M63.09,173.59l-.16-.46.22-.44c.57-1.14-.27-2.47-1.55-2.45h-.49s-.35-.33-.35-.33c-.91-.89-2.44-.5-2.81.71l-.14.47-.43.22c-1.13.59-1.23,2.16-.19,2.89l.15.11c.16,0,.32,0,.49,0,2.06,0,3.8,0,5.33,0,.02-.23.01-.48-.07-.72ZM60.05,174.31c-.76,0-1.37-.61-1.37-1.37s.61-1.37,1.37-1.37,1.37.61,1.37,1.37-.61,1.37-1.37,1.37Z"/>
        <circle class="cls-11" cx="60.05" cy="172.94" r="1.37"/>
        <path class="cls-13" d="M54.25,142.49l.39-.29.48.07c1.26.19,2.27-1.02,1.85-2.23l-.16-.46.22-.44c.12-.24.17-.49.17-.74-.66.33-1.3.67-1.91,1.07-.04.72-.63,1.28-1.36,1.28-.11,0-.22-.02-.33-.04-.57.47-1.13.97-1.65,1.52.55.64,1.55.82,2.31.25Z"/>
        <path class="cls-11" d="M53.93,140.76c.73,0,1.32-.57,1.36-1.28-.59.38-1.15.8-1.69,1.24.11.03.22.04.33.04Z"/>
      </g>
      <g>
        <path class="cls-13" d="M100.61,167.49l.22-.44c.57-1.14-.27-2.47-1.55-2.45h-.49s-.35-.33-.35-.33c-.91-.89-2.44-.5-2.81.71l-.14.47-.43.22c-1.13.59-1.23,2.16-.19,2.89l.4.28.08.48c.21,1.26,1.68,1.84,2.69,1.07l.39-.29.48.07c1.26.19,2.27-1.02,1.85-2.23l-.16-.46ZM97.72,168.68c-.76,0-1.37-.61-1.37-1.37s.61-1.37,1.37-1.37,1.37.61,1.37,1.37-.61,1.37-1.37,1.37Z"/>
        <circle class="cls-11" cx="97.72" cy="167.31" r="1.37"/>
      </g>
      <g>
        <path class="cls-13" d="M75.95,155.44c-.59.49-1.19.93-1.79,1.3.1.19.17.41.17.64,0,.76-.61,1.37-1.37,1.37-.55,0-1.03-.33-1.24-.8-.65.23-1.28.37-1.9.43.09.1.18.19.3.27l.4.28.08.48c.21,1.26,1.68,1.84,2.69,1.07l.39-.29.48.07c1.26.19,2.27-1.02,1.85-2.23l-.16-.46.22-.44c.29-.59.21-1.22-.12-1.7Z"/>
        <path class="cls-11" d="M72.96,158.76c.76,0,1.37-.61,1.37-1.37,0-.23-.06-.45-.17-.64-.82.52-1.64.93-2.45,1.21.22.47.69.8,1.24.8Z"/>
      </g>
    </g>
    <path class="cls-1" d="M84.84,131.82l-8.48-.05.26,3.43c2.89.04,5.79.08,8.68.11-.15-1.16-.3-2.33-.45-3.49Z"/>
    <g class="cls-7">
      <path class="cls-9" d="M88.51,40l-17.41-.63c-40.72,2.82-41.21,21.01-42,43.94.32,2.25.64,4.5.96,6.75.23,5.99,1.66,18.6,10.79,27.86,4,4.06,8.27,6.24,12.26,8.28,6.72,3.44,13.42,4.85,23.91,7.27,1.6.37,2.92.65,3.79.84,3.31-.88,11.02-3.01,18.65-6.1,4.26-1.72,7.36-3.32,10.53-5.36.92-.6,1.81-1.22,2.72-1.91,2.9-2.2,10.89-9.22,13.49-26.85.49-2.41.97-4.82,1.46-7.23.79-22.93,6.46-45.72-39.15-46.85Z"/>
    </g>
    <g>
      <path class="cls-12" d="M139.61,91.15c-.33,9.55-7.7,17.05-16.46,16.74-8.76-.31-15.58-8.3-15.25-17.85.33-9.55,7.7-17.05,16.46-16.74,8.76.31,15.58,8.3,15.25,17.85Z"/>
      <path class="cls-1" d="M136.37,90.81c-.2,5.63-4.54,10.05-9.71,9.87s-9.19-4.89-8.99-10.53c.2-5.63,4.54-10.05,9.71-9.87s9.19,4.89,8.99,10.53Z"/>
    </g>
    <g>
      <path class="cls-12" d="M47.17,91.04c-.33,9.55-7.7,17.05-16.46,16.74-8.76-.31-15.58-8.3-15.25-17.85.33-9.55,7.7-17.05,16.46-16.74,8.76.31,15.58,8.3,15.25,17.85Z"/>
      <path class="cls-1" d="M40.36,90.66c-.2,5.63-4.54,10.05-9.71,9.87s-9.19-4.89-8.99-10.53c.2-5.63,4.54-10.05,9.71-9.87s9.19,4.89,8.99,10.53Z"/>
    </g>
    <path class="cls-6" d="M13.4,58.46c-.05.54-.1,1.1-.13,1.68-.03.63-.05,1.23-.05,1.81,4.36-4.79,10-12.03,14.69-21.89,4.56-9.6,6.62-18.33,7.61-24.63-.52.32-1.04.67-1.57,1.04-.14.1-.28.2-.41.29-1.58,6.2-4.05,13.75-8.01,21.93-3.93,8.12-8.28,14.7-12.13,19.76Z"/>
    <path class="cls-12" d="M88.32,39.92l-17.41-.62c-40.72,2.82-41.21,20.99-42,43.89.32,2.25.64,4.49.96,6.74.23,5.98,1.66,18.58,10.79,27.83,4,4.05,8.27,6.23,12.26,8.27,6.72,3.43,13.42,4.84,23.91,7.26,1.6.37,2.92.65,3.79.84,3.31-.88,11.02-3.01,18.65-6.09,4.26-1.72,7.36-3.31,10.53-5.36.92-.6,1.81-1.22,2.72-1.91,2.9-2.2,10.89-9.21,13.49-26.82.49-2.41.97-4.81,1.46-7.22.79-22.91,6.46-45.67-39.15-46.8Z"/>
    <path class="cls-8" d="M91.19,67.36c1.96-.06,3.93.18,5.85.57.95.19,1.9.45,2.82.75.46.15.92.31,1.38.49.51.2.97.45,1.54.38.6-.07,1.2-.72.77-1.34-.61-.88-1.83-1.17-2.82-1.49-1.02-.34-2.08-.6-3.14-.79-2.13-.39-4.24-.44-6.41-.28-1.09.08-1.12,1.75,0,1.72h0Z"/>
    <path class="cls-8" d="M62.13,66.73c-2.14.15-4.24.46-6.27,1.14-1.01.34-2,.74-2.96,1.2-.9.43-2.24.92-2.7,1.85-.29.59.06,1.35.77,1.34.99-.01,1.88-.78,2.75-1.21.88-.44,1.78-.84,2.7-1.16,1.84-.66,3.78-1.21,5.72-1.43.46-.05.86-.36.86-.86,0-.44-.4-.89-.86-.86h0Z"/>
    <g>
      <path class="cls-10" d="M57.99,97h0c-5.87.06-10.69-3.32-10.78-7.54l-.08-4.05c-.08-4.22,4.61-7.69,10.48-7.75h0c5.87-.06,10.7,3.32,10.78,7.54l.08,4.05c.08,4.22-4.61,7.69-10.48,7.75Z"/>
      <path class="cls-3" d="M57.81,93.28h0c4.21,0,7.63-2.11,7.62-4.72v-2.49c-.01-2.6-3.43-4.71-7.64-4.7h0c-4.21,0-7.63,2.11-7.62,4.72v2.49c.01,2.6,3.43,4.71,7.64,4.7Z"/>
    </g>
    <g>
      <path class="cls-10" d="M97.61,97h0c5.87,0,10.62-3.43,10.61-7.66v-4.05c-.01-4.22-4.78-7.64-10.65-7.64h0c-5.87,0-10.62,3.43-10.61,7.66v4.05c.01,4.22,4.78,7.64,10.65,7.64Z"/>
      <path class="cls-3" d="M97.61,93.28h0c4.21,0,7.63-2.11,7.62-4.72v-2.49c-.01-2.6-3.43-4.71-7.64-4.7h0c-4.21,0-7.63,2.11-7.62,4.72v2.49c.01,2.6,3.43,4.71,7.64,4.7Z"/>
    </g>
    <path class="cls-10" d="M63.84,80.58c3.21,2.27-3.21,6.99-6.42,5.86-3.21-1.13,3.21-8.12,6.42-5.86Z"/>
    <path class="cls-10" d="M104.89,80.58c3.21,2.27-3.21,6.99-6.42,5.86-3.21-1.13,3.21-8.12,6.42-5.86Z"/>
    <g>
      <path class="cls-10" d="M83.72,118.14c-2.08,0-4.92-.19-4.92-.19-1.94-.14-3.43-.27-4.02-.32-1.51-.13-3.58-.32-6.08-.57,1.08.74,2.5,1.52,4.27,2.11,1.69.57,3.64.93,5.82.86,3.06-.09,5.6-1,7.6-2.1-.31.06-.73.12-1.23.16-.18.02-1.07.04-1.43.04Z"/>
      <path class="cls-10" d="M91.52,113.75c-3.62.98-8.54,1.92-14.39,1.9-4.56-.02-8.5-.61-11.62-1.31.26.28,1.13,1.23,2.55,2.26.81.09,1.99.22,3.4.36,1.93.2,2.9.29,4,.38,1.03.08,3.06.23,5.62.3,2.29.06,3.2,0,3.98-.08,1.11-.11,2.02-.29,2.65-.43,2.18-1.45,3.48-2.99,3.81-3.39Z"/>
      <polygon class="cls-1" points="68.69 117.06 68.69 117.06 68.69 117.05 68.69 117.06"/>
    </g>
    <path class="cls-1" d="M77.91,87.61s-.74,13.02-2.79,14.88c-.74.67-2.46,1.75-1.85,2.89.57,1.06,1.93,1.42,3.05,1.31.47-.05.83-.15,1.22-.4.15-.1.56-.64.75-.63,0,0,3.35.19,2.05-1.67s-1.86-1.12-1.86-1.12c0,0,.37-18.23-.56-15.25Z"/>
    <path class="cls-8" d="M84.52,10.55c-30.79.71-57.78,15.2-55.19,62.69.41.51,1.01,1.28,1.7,2.23,1.27,1.75,2.09,3.06,3,4.5,3.67,5.84,4.1,6.34,4.61,6.27,1.14-.14,1.7-2.96,2-4.6.76-4.16,1.59-10.22,1.79-18.19,26.26-.8,35.38-21.3,35.38-21.3"/>
    <path class="cls-8" d="M153.63,85.52c-.67,1.99-1.54,3.73-2.43,4.84-.04.05-.08.09-.12.15-3.97,4.71-12.55,7.76-17.74,2.98-5.21-4.79-1.31-11.77-1.88-17.97-8.14,2.28-22.02,12.51-23.85-1.64-1.26-9.7,3.65-17.43-11.39-14.57-10.83,2.07-28.73,14.34-35.63-.67-2.09-4.58-2.18-9.93-.98-14.79.07-.34.16-.66.25-.99.35-1.21.61-2.46.88-3.7.43-1.93.91-3.86,1.87-5.6.56-1.01,1.93-3.19,3.25-3.24.88-.03,1.71.39,2.56.41.34.01.7-.05,1.05-.22.14-.08.28-.16.4-.26.79-.64.54-1.77.86-2.69.97-2.92,1.75-5.79,3.08-8.19h0c0-.15.72-.29.85-.43.79-.79,1.29-1.48,1.91-2.16.09-.1.29-.21.38-.29,1.72-1.84,3.97-3.32,6.62-4.24,4.01-1.39,8.36-1.53,11.96.02.03.01.06.02.09.03.8.36,1.61.79,2.33,1.32.01,0,.02,0,.03.02,2.02,1.44,3.7,3.58,4.78,6.49,14.01-2.99,20.05-1.39,22.04,14.26,12.53-2.42,18.32,12.05,18.13,22.76-.04,1.99-1.86,6.91-3.09,11.73-.22.89-.43,1.77-.59,2.63-1.09,5.56-.71,10.21,5.07,9-2.38-6.97,3.48-15.28,9.23-7.46,2.09,2.83,1.54,8.23.09,12.5Z"/>
    <path class="cls-6" d="M154.53,102.2c-.04.36-.09.72-.14,1.09-.06.43-.12.85-.19,1.26-.94.05-2.38.02-4.01-.49,0,0-3.38-.75-5.48-3.64-4.95-6.81-4.05-15.64-.76-22.97.97-2.2,2.57-5.01,2.5-7.49-.14-4.36-6.04-3.8-8.64-4.15-2.51-.36-4.69-.79-6.31-2.84-1.68-2.16-.1-6.35,1.11-8.17,4.51-6.89,19.67-18.17,6.38-25.51-13.04-7.21-29.35-1.19-43.37-3.28-7.92-1.18-16.49-9.97-17.11-18.51-.13-1.77.13-3.26.38-4.26.31-.1.62-.21.94-.31.46-.15.92-.3,1.37-.44-.61,1.69-2.13,6.65.08,11.69.54,1.24,2.17,4.56,7.19,7.32,10.56,5.8,22.71,1.86,34.07,2.29,6.69.26,17.06.45,21.15,7.06,3.97,6.44,2.52,12.49-2.75,17.67-1.4,1.36-12.9,12.87-5.41,14.58,1.78.39,3.48.48,5.29.66,1.91.2,4.51.34,6.01,1.73,3.76,3.47,1.03,8.86-.7,12.73-1.07,2.39-2.77,18.74,3.86,22.95,1.42.9,3.03,1.12,4.54,1.04Z"/>
  </g>
</svg>