<?xml version="1.0" encoding="UTF-8"?>
<svg id="Capa_2" data-name="Capa 2" xmlns="http://www.w3.org/2000/svg" viewBox="0 0 764.3 1150.01">
  <defs>
    <style>
      .cls-1 {
        fill: #f76a69;
      }

      .cls-1, .cls-2, .cls-3, .cls-4, .cls-5, .cls-6, .cls-7, .cls-8, .cls-9, .cls-10, .cls-11, .cls-12, .cls-13, .cls-14, .cls-15, .cls-16, .cls-17, .cls-18, .cls-19, .cls-20, .cls-21, .cls-22, .cls-23, .cls-24, .cls-25, .cls-26, .cls-27, .cls-28, .cls-29, .cls-30, .cls-31, .cls-32, .cls-33, .cls-34, .cls-35, .cls-36, .cls-37, .cls-38, .cls-39, .cls-40, .cls-41, .cls-42, .cls-43, .cls-44, .cls-45, .cls-46, .cls-47, .cls-48, .cls-49, .cls-50, .cls-51, .cls-52, .cls-53, .cls-54, .cls-55, .cls-56, .cls-57, .cls-58, .cls-59, .cls-60, .cls-61, .cls-62, .cls-63, .cls-64, .cls-65, .cls-66, .cls-67, .cls-68, .cls-69, .cls-70, .cls-71, .cls-72, .cls-73, .cls-74, .cls-75, .cls-76, .cls-77, .cls-78, .cls-79, .cls-80, .cls-81, .cls-82, .cls-83, .cls-84, .cls-85, .cls-86, .cls-87, .cls-88, .cls-89, .cls-90, .cls-91, .cls-92, .cls-93, .cls-94, .cls-95, .cls-96, .cls-97, .cls-98, .cls-99, .cls-100, .cls-101, .cls-102, .cls-103, .cls-104, .cls-105, .cls-106 {
        fill-rule: evenodd;
      }

      .cls-2 {
        fill: #25163e;
      }

      .cls-3 {
        fill: #f35364;
      }

      .cls-4 {
        fill: #f99729;
      }

      .cls-5 {
        fill: #f62a69;
      }

      .cls-6 {
        fill: #f53f55;
      }

      .cls-7 {
        fill: #441f61;
      }

      .cls-8 {
        fill: #2e174a;
      }

      .cls-9 {
        fill: #f8a424;
      }

      .cls-10 {
        fill: #351748;
      }

      .cls-11 {
        fill: #f76536;
      }

      .cls-12 {
        fill: #40175c;
      }

      .cls-13 {
        fill: #edb482;
      }

      .cls-14 {
        fill: #421e5f;
      }

      .cls-15 {
        fill: #851a66;
      }

      .cls-16 {
        fill: #ec3748;
      }

      .cls-17 {
        fill: #261540;
      }

      .cls-18 {
        fill: #f7464c;
      }

      .cls-19 {
        fill: #f76f83;
      }

      .cls-20 {
        fill: #47144f;
      }

      .cls-21 {
        fill: #6c195e;
      }

      .cls-22 {
        fill: #581957;
      }

      .cls-23 {
        fill: #2a1a44;
      }

      .cls-24 {
        fill: #f97169;
      }

      .cls-25 {
        fill: #3a1857;
      }

      .cls-26 {
        fill: #721760;
      }

      .cls-27 {
        fill: #411657;
      }

      .cls-28 {
        fill: #f14241;
      }

      .cls-29 {
        fill: #f43360;
      }

      .cls-30 {
        fill: #2b1b45;
      }

      .cls-31 {
        fill: #f5762d;
      }

      .cls-32 {
        fill: #511762;
      }

      .cls-33 {
        fill: #64185c;
      }

      .cls-34 {
        fill: #f5b31e;
      }

      .cls-35 {
        fill: #2b1846;
      }

      .cls-36 {
        fill: #fa8831;
      }

      .cls-37 {
        fill: #411d5f;
      }

      .cls-38 {
        fill: #481f65;
      }

      .cls-39 {
        fill: #fb9c78;
      }

      .cls-40 {
        fill: #a41c6d;
      }

      .cls-41 {
        fill: #2e1049;
      }

      .cls-42 {
        fill: #6a176d;
      }

      .cls-43 {
        fill: #f85242;
      }

      .cls-44 {
        fill: #2b1646;
      }

      .cls-45 {
        fill: #5c2574;
      }

      .cls-46 {
        fill: #c91f73;
      }

      .cls-47 {
        fill: #aa1e86;
      }

      .cls-48 {
        fill: #61397a;
      }

      .cls-49 {
        fill: #8f1867;
      }

      .cls-50 {
        fill: #2a1c43;
      }

      .cls-51 {
        fill: #f6901c;
      }

      .cls-52 {
        fill: #281742;
      }

      .cls-53 {
        fill: #30164a;
      }

      .cls-54 {
        fill: #f43f77;
      }

      .cls-55 {
        fill: #8f5e9d;
      }

      .cls-56 {
        fill: #d82680;
      }

      .cls-57 {
        fill: #471952;
      }

      .cls-58 {
        fill: #f23065;
      }

      .cls-59 {
        fill: #f5503a;
      }

      .cls-60 {
        fill: #c32085;
      }

      .cls-61 {
        fill: #28094f;
      }

      .cls-62 {
        fill: #fa796b;
      }

      .cls-63 {
        fill: #3c1b5a;
      }

      .cls-64 {
        fill: #f8782a;
      }

      .cls-65 {
        fill: #f55b68;
      }

      .cls-66 {
        fill: #8e5e9e;
      }

      .cls-67 {
        fill: #f87c07;
      }

      .cls-67, .cls-90 {
        isolation: isolate;
        opacity: 1;
      }

      .cls-68 {
        fill: #b51d71;
      }

      .cls-69 {
        fill: #761773;
      }

      .cls-70 {
        fill: #f9756a;
      }

      .cls-71 {
        fill: #f86e2b;
      }

      .cls-72 {
        fill: #ef367c;
      }

      .cls-73 {
        fill: #391a56;
      }

      .cls-74 {
        fill: #db2a85;
      }

      .cls-75 {
        fill: #4d1860;
      }

      .cls-76 {
        fill: #421858;
      }

      .cls-77 {
        fill: #f96550;
      }

      .cls-78 {
        fill: #e23147;
      }

      .cls-79 {
        fill: #f8575d;
      }

      .cls-80 {
        fill: #f84b6b;
      }

      .cls-81 {
        fill: #3b1a59;
      }

      .cls-82 {
        fill: #23143c;
      }

      .cls-83 {
        fill: #b81f87;
      }

      .cls-84 {
        fill: #371a56;
      }

      .cls-85 {
        fill: #5d2574;
      }

      .cls-86 {
        fill: #7f1864;
      }

      .cls-87 {
        fill: #180e2d;
      }

      .cls-88 {
        fill: #2b1d44;
      }

      .cls-89 {
        fill: #291a43;
      }

      .cls-90 {
        fill: #140d28;
      }

      .cls-91 {
        fill: #f25264;
      }

      .cls-92 {
        fill: #f9753f;
      }

      .cls-93 {
        fill: #f0465e;
      }

      .cls-107 {
        fill: #551763;
      }

      .cls-94 {
        fill: #f39a19;
      }

      .cls-95 {
        fill: #f86032;
      }

      .cls-96 {
        fill: #5b1767;
      }

      .cls-97 {
        fill: #c52a42;
      }

      .cls-98 {
        fill: #31194e;
      }

      .cls-99 {
        fill: #2d1648;
      }

      .cls-100 {
        fill: #e72670;
      }

      .cls-101 {
        fill: #dc2274;
      }

      .cls-102 {
        fill: #411950;
      }

      .cls-103 {
        fill: #68186e;
      }

      .cls-104 {
        fill: #f68a0d;
      }

      .cls-105 {
        fill: #431e61;
      }

      .cls-106 {
        fill: #4e1954;
      }
    </style>
  </defs>
  <g id="Capa_1-2" data-name="Capa 1">
    <path class="cls-39" d="M568,282.43c-14.6-8.64-29.27-8.64-44,0-5.47,4.47-10.64,9.3-15.5,14.5-5.38,8.25-10.88,16.42-16.5,24.5-2.81.92-4.97.09-6.5-2.5-2.8-4.6-5.3-9.27-7.5-14-6.52-16.4-10.68-33.4-12.5-51-11.99-15.31-22.99-31.31-33-48-12.97-23.58-21.97-48.58-27-75-2.45-1.47-4.95-2.81-7.5-4-.77.42-1.6.76-2.5,1-3.8-1.34-7.64-2.34-11.5-3-18.77-2.65-37.11-.81-55,5.5-22.11,7.98-41.44,20.15-58,36.5-19.96,18.97-38.3,39.3-55,61,10.51.67,20.17,3.84,29,9.5,5.97,4.43,8.13,10.27,6.5,17.5-1.27,3.14-3.6,4.8-7,5-7.76-2.7-15.59-5.2-23.5-7.5-13.43-2.91-26.43-1.74-39,3.5-2.96,3.46-6.13,6.8-9.5,10-.38-.56-.88-.89-1.5-1-2.5,25.43-4.16,50.93-5,76.5-.12,17.38,1.71,34.55,5.5,51.5,6.78,32.6,22.95,59.27,48.5,80,9.97,7.66,20.63,14.32,32,20,11.87,5.28,23.2,9.28,34,12,6.69,2.2,13.69,3.2,21,3,21.93-.21,43.27-3.88,64-11,21.5-8.41,41.5-19.41,60-33,4.64-3.97,8.97-8.31,13-13,4.63-4.13,9.13-8.46,13.5-13,3.32-5.15,7.15-9.81,11.5-14,6.45-12.07,12.78-24.23,19-36.5,3.03.56,6.03,1.56,9,3,4.45.9,8.95,1.4,13.5,1.5,20.18-1.68,37.35-9.68,51.5-24,12.76-14.53,19.76-31.53,21-51-.22-13.61-5.22-25.11-15-34.5ZM286.5,377.93c-6.87,7.62-15.37,10.46-25.5,8.5-14.13-5.42-18.63-15.25-13.5-29.5,6.67-11.33,13.33-22.67,20-34,1.67-2.67,3.33-2.67,5,0,.17,4.66,0,9.33-.5,14-2.99,8.09-6.49,16.09-10.5,24-1.09,3.11-.25,5.45,2.5,7,2.15,2.25,4.82,3.75,8,4.5,4.67.33,9.33.67,14,1,1.05,1.39,1.22,2.89.5,4.5ZM388,298.43c-2.88-4.55-6.72-8.05-11.5-10.5,5.01,13.78,4.51,27.45-1.5,41-2.24,2.39-4.9,4.23-8,5.5-9.04,1.97-14.88-1.53-17.5-10.5-1.52-7.6-1.86-15.27-1-23,.65-5.29,2.48-10.12,5.5-14.5-6.6,1.48-12.27,4.81-17,10-1.29.49-2.63.66-4,.5-.16-1.7,0-3.37.5-5,7.92-13.55,19.76-19.55,35.5-18,12.33,2,20.33,9,24,21,.07,3.57-1.59,4.74-5,3.5ZM414.5,254.93c-.8,1.3-1.97,1.97-3.5,2-5.58-1.75-11.25-3.09-17-4-.71-.9-1.71-1.24-3-1-22.28-2.83-44.11-.83-65.5,6-1.22-.36-2.39-.86-3.5-1.5-5.06-5.66-5.23-11.49-.5-17.5,7.69-6.26,16.52-9.92,26.5-11,13.83-1.87,27.5-1.04,41,2.5,10.33,2.41,18.5,7.91,24.5,16.5,1.25,2.58,1.58,5.24,1,8Z"/>
    <path class="cls-27" d="M284,27.93c-17.63,5.22-34.63,12.22-51,21-1.24-.31-1.24-.81,0-1.5,7.55-3.94,15.21-7.61,23-11-1.67-1-3.33-2-5-3,3.88.35,3.88-.48,0-2.5.85-3.11,2.02-3.45,3.5-1,1.71-1.43,3.05-1.09,4,1,.68-1.28.52-2.45-.5-3.5,1.6.62,2.93.28,4-1-7.98-1.98-7.98-3.98,0-6-20.1,6.22-38.44,15.89-55,29-.92.37-1.75.87-2.5,1.5-.4-.23-.57-.56-.5-1,24.55-18.94,51.88-32.61,82-41,.6.64,1.43.97,2.5,1,22.39-6.21,45.23-8.71,68.5-7.5-5,.33-10,.67-15,1-1.88,2.37-4.21,4.21-7,5.5-1.31-.96-2.65-.79-4,.5,5,.43,5.17,1.26.5,2.5-.33-.33-.67-.67-1-1-.6,1.4-.43,2.73.5,4-.85,1.35-2.01,2.35-3.5,3-.33-.67-.67-1.33-1-2-.49,1.63-.66,3.3-.5,5-12.09.7-24.09,2.2-36,4.5-2.93.3-4.93,1.13-6,2.5Z"/>
    <path class="cls-76" d="M333,22.93c21.83.21,40.99,7.21,57.5,21,.67.67.67,1.33,0,2-1.08-1.89-2.41-2.23-4-1-1.74-1.22-2.74-2.88-3-5-.33,1-.67,2-1,3-1.46-2.21-3.3-2.87-5.5-2,2.64.69,5.14,2.36,7.5,5,.34,1.7-.32,3.03-2,4-.42-1.46-1.26-1.96-2.5-1.5,1.14.74,1.14,1.57,0,2.5,2.67,1.33,2.67,2.67,0,4,1.08.25,2.42.41,4,.5,1.32,1.54.99,2.71-1,3.5-.98-.48-1.81-1.14-2.5-2-.33.33-.67.67-1,1-.43-3.62-1.6-3.79-3.5-.5.11,1.72.61,1.89,1.5.5.33,2.43-.83,3.43-3.5,3,.14,1.62-.53,2.79-2,3.5.67.33,1.33.67,2,1-1.27.31-2.43.81-3.5,1.5-.33-.67-.67-1.33-1-2-.72,1.61-.55,3.11.5,4.5l-1.5,1.5c-.22-1.88-.88-3.55-2-5-.49,1.05-.33,2.05.5,3-2.42,1.55-2.42,3.21,0,5,1.67.83,3.33,1.67,5,2.5-.23.4-.56.57-1,.5-9.33-3.72-18.99-6.55-29-8.5-7.66-.5-15.33-.67-23-.5,5.82-.83,11.82-1.33,18-1.5-7.02-.17-14.02-.67-21-1.5-1.61-2.66-.95-4.49,2-5.5-3.88-1.35-3.88-2.51,0-3.5,1.33-1,1.33-2,0-3,.5-.33,1-.67,1.5-1,.57.85,1.24,1.85,2,3,.5-.17,1-.33,1.5-.5-1.33-1.84-1.17-2.34.5-1.5.72-1.61.55-3.11-.5-4.5,3.57-2.13,3.57-3.63,0-4.5-.13-2.15.37-4.15,1.5-6,.33.67.67,1.33,1,2,7.32-4.46,7.15-8.79-.5-13,1.49-.85,3.32-.85,5.5,0,.5-.33,1-.67,1.5-1-1.23-.78-2.56-1.28-4-1.5,1.88-.2,3.55-.7,5-1.5Z"/>
    <path class="cls-53" d="M470,45.93c-2.39-3.9-5.39-7.4-9-10.5-21.28-16.33-45.28-26.66-72-31,1-.38,2.03-.56,3.08-.55-.1-.05-.2-.1-.3-.16-35.5-6.32-70.76-4.6-105.78,5.21.6.64,1.43.97,2.5,1,22.39-6.21,45.23-8.71,68.5-7.5-5,.33-10,.67-15,1-1.88,2.37-4.21,4.21-7,5.5-1.31-.96-2.65-.79-4,.5,5,.43,5.16,1.26.5,2.5-.33-.33-.67-.67-1-1-.6,1.4-.43,2.73.5,4-.85,1.35-2.01,2.35-3.5,3-.33-.67-.67-1.33-1-2-.49,1.63-.66,3.3-.5,5-12.09.7-24.09,2.2-36,4.5-2.93.3-4.93,1.14-6,2.5,13.16-2.97,26.5-4.64,40-5h9c21.83.22,40.99,7.22,57.5,21,.67.67.67,1.33,0,2-1.08-1.89-2.41-2.23-4-1-1.74-1.22-2.74-2.88-3-5-.33,1-.67,2-1,3-1.46-2.21-3.3-2.87-5.5-2,2.64.69,5.14,2.36,7.5,5,.34,1.7-.32,3.03-2,4-.42-1.46-1.26-1.96-2.5-1.5,1.14.74,1.14,1.58,0,2.5,2.67,1.33,2.67,2.67,0,4,1.08.25,2.41.42,4,.5,1.32,1.55.99,2.71-1,3.5-.98-.48-1.81-1.14-2.5-2-.33.33-.67.67-1,1-.43-3.62-1.6-3.79-3.5-.5.11,1.72.61,1.89,1.5.5.33,2.43-.83,3.43-3.5,3,.14,1.62-.53,2.79-2,3.5.67.33,1.33.67,2,1-1.27.31-2.43.81-3.5,1.5-.33-.67-.67-1.33-1-2-.72,1.61-.55,3.11.5,4.5l-1.5,1.5c-.22-1.88-.88-3.55-2-5-.49,1.05-.33,2.05.5,3-2.42,1.55-2.42,3.21,0,5,1.67.83,3.33,1.67,5,2.5-.23.4-.56.57-1,.5,6.09,3.58,12.09,7.41,18,11.5,4.94,5.59,9.44,11.43,13.5,17.5,5.32-5.25,10.65-10.58,16-16,14.9-19.36,13.06-37.53-5.5-54.5,7.82,3.11,14.65,7.94,20.5,14.5,3.77,5.58,7.27,11.25,10.5,17,7.95-6.12,16.28-11.62,25-16.5.88-1.36,1.21-2.86,1-4.5Z"/>
    <path class="cls-17" d="M470,45.93c1.44,2.09,3.44,3.43,6,4,16.88-4.49,33.54-3.66,50,2.5,27.99,12.66,50.49,31.82,67.5,57.5,19.45,31.67,31.78,66,37,103,.49-1.63.66-3.3.5-5,1.96,8.44,3.29,17.1,4,26-.66,1.63-.99,3.47-1,5.5,1.85,17.14,3.35,34.3,4.5,51.5,2.12,17.8,6.12,35.14,12,52,10.38,19.37,22.71,37.37,37,54,13.84,17.68,22.17,37.68,25,60,1.13,10.92-.04,21.59-3.5,32,.04.92.38,1.58,1,2-.33.67-.67,1.33-1,2-3.79,6.85-7.96,14.19-12.5,22-7.45,9.61-14.28,19.61-20.5,30-.74.13-1.41-.04-2-.5,2.65-2.44,1.98-3.77-2-4-1-3.33-2-3.33-3,0,.67.33,1.33.67,2,1-2.09,3.33-4.76,6.16-8,8.5.38-1.96-.12-3.96-1.5-6-1.31,2.39-2.31,2.39-3,0-1.78.74-3.62,1.41-5.5,2l-1-1c4.24-13.87,9.07-27.87,14.5-42,1.11-3.62,1.44-7.29,1-11-1.12-.16-2.28-.5-3.5-1-1.09-1.85-2.43-3.52-4-5,1.4-1.34,1.07-2.18-1-2.5.39-1.81.39-3.47,0-5,1-.33,2-.67,3-1-2.13-1.26-4.3-1.76-6.5-1.5-.56-2.11-1.39-4.11-2.5-6,1.56-.85,3.06-.51,4.5,1,1.89-.81,2.55-2.15,2-4l-1,1c-1.07-.69-2.23-1.19-3.5-1.5,1.33-.67,1.33-1.33,0-2-1.76-.98-3.43-1.65-5-2,1.76-.98,3.43-1.65,5-2-.69-1.07-1.19-2.23-1.5-3.5-.41.46-.91.79-1.5,1-1.88-1.38-3.88-2.54-6-3.5,1.33-.33,2.67-.67,4-1-.67-.33-1.33-.67-2-1,.74-3.2-.1-3.36-2.5-.5-.17,1.33-.33,2.67-.5,4,1.01,7.89,1.68,15.39,2,22.5-3.21,16.18-6.88,32.18-11,48,.41,1.8.41,3.46,0,5,1.45,1.96,1.78,3.96,1,6,1.26,1.71,1.6,3.37,1,5,1.61,3.71,3.28,7.37,5,11-1.96-.22-3.79-1.05-5.5-2.5-.24-2.26-.74-4.43-1.5-6.5,1.13-1.02.8-1.68-1-2,1.66-.72,2.16-1.89,1.5-3.5-.72,1.66-1.89,2.16-3.5,1.5.88-1.36,1.21-2.86,1-4.5-1.05.15-2.05-.02-3-.5,1.27-1.8,1.27-3.63,0-5.5.88-.75,1.88-1.25,3-1.5-.75-1.49-1.59-1.65-2.5-.5-2.45-2.97-1.95-5.14,1.5-6.5-1.35-.77-2.18-1.94-2.5-3.5-1,1.33-2,2.67-3,4-1.48-2.28-3.15-2.28-5,0l-1.5-1.5c1.29-2.09,2.29-4.09,3-6-.63-.75-1.13-1.58-1.5-2.5-.42,1.17-1.09,2.17-2,3-1.7-.91-3.53-1.24-5.5-1-.12-4.71-.12-9.21,0-13.5-2.08-8.72-4.91-17.56-8.5-26.5-5.27-10.21-10.27-20.54-15-31-5.48-14.97-6.81-29.97-4-45,1.23-8.73,2.4-17.23,3.5-25.5-.63-.75-1.13-1.58-1.5-2.5-1.14.23-2.3.56-3.5,1,.88.75,1.88,1.25,3,1.5-.96,1.15-.62,2.15,1,3-.83.91-1.83,1.58-3,2,1.14.74,1.14,1.58,0,2.5-1.85,1.26-3.69,1.26-5.5,0-1.99,2.18-1.82,4.01.5,5.5-1.96.62-3.63.12-5-1.5-.69.53-1.19,1.19-1.5,2l-1-1c-1.07.69-2.23,1.19-3.5,1.5.67.33,1.33.67,2,1-1.59,1.05-3.09,2.21-4.5,3.5-.7-1.53-1.87-2.53-3.5-3-2.49,1.65-4.66,3.65-6.5,6-.49-1.05-.33-2.05.5-3-.74-.79-1.58-1.45-2.5-2-.78-2.7-1.28-5.54-1.5-8.5-.26-1.33-.92-2.33-2-3,3.63-2.63,6.97-5.63,10-9-.23-.4-.56-.57-1-.5,12.76-14.53,19.76-31.53,21-51-.22-13.61-5.22-25.11-15-34.5-14.6-8.64-29.27-8.64-44,0-5.47,4.47-10.64,9.3-15.5,14.5-5.38,8.25-10.88,16.42-16.5,24.5-2.81.92-4.97.09-6.5-2.5-2.8-4.6-5.3-9.27-7.5-14-6.52-16.4-10.68-33.4-12.5-51-11.99-15.3-22.99-31.3-33-48-12.97-23.58-21.97-48.58-27-75-2.45-1.47-4.95-2.81-7.5-4-25.02-12.23-51.35-15.73-79-10.5-29.93,6.95-54.26,22.45-73,46.5-2,1.67-4,3.33-6,5,.04-1.08.37-2.08,1-3-3.16-.82-5.99-2.15-8.5-4-2.36,3.19-4.86,6.19-7.5,9,24.15-44.29,61.15-71.12,111-80.5,5.67-.33,11.33-.67,17-1-23.88-11.45-48.21-12.45-73-3-9.17,4.08-17.84,8.92-26,14.5,9.75-10.71,21.41-18.71,35-24,9.47-4.54,19.47-7.2,30-8,7.67-.17,15.34,0,23,.5,10.01,1.95,19.67,4.78,29,8.5,6.09,3.58,12.09,7.41,18,11.5,4.94,5.59,9.44,11.43,13.5,17.5,5.32-5.25,10.65-10.58,16-16,14.9-19.36,13.06-37.53-5.5-54.5,7.82,3.11,14.65,7.94,20.5,14.5,3.77,5.58,7.27,11.25,10.5,17,7.95-6.12,16.28-11.62,25-16.5.88-1.36,1.21-2.86,1-4.5Z"/>
    <path class="cls-75" d="M324,22.93h9c-1.45.8-3.12,1.3-5,1.5,1.44.22,2.77.72,4,1.5-.5.33-1,.67-1.5,1-2.18-.85-4.01-.85-5.5,0,7.65,4.21,7.82,8.54.5,13-.33-.67-.67-1.33-1-2-1.13,1.85-1.63,3.85-1.5,6,3.57.87,3.57,2.37,0,4.5,1.05,1.39,1.22,2.89.5,4.5-1.67-.84-1.83-.34-.5,1.5-.5.17-1,.33-1.5.5-.76-1.15-1.43-2.15-2-3-.5.33-1,.67-1.5,1,1.33,1,1.33,2,0,3-3.88.99-3.88,2.15,0,3.5-2.95,1.01-3.61,2.84-2,5.5,6.98.83,13.98,1.33,21,1.5-6.18.17-12.18.67-18,1.5-10.53.8-20.53,3.46-30,8,.13-.74-.04-1.41-.5-2-1.58,1.36-3.42,2.03-5.5,2-.09-3.56.74-6.89,2.5-10,1.62-1.14,3.45-1.97,5.5-2.5-1.13-1.02-.8-1.68,1-2-1.66-.73-2.16-1.89-1.5-3.5.41.46.91.79,1.5,1,.56-2.21,1.9-3.71,4-4.5-1.21-1.11-1.21-2.28,0-3.5-1.96-1.35-2.13-2.68-.5-4,.33.67.67,1.33,1,2,.83-1.5,2-2.67,3.5-3.5-.55-1.4-.88-2.73-1-4,2.25-1.05,2.59-2.55,1-4.5,2.28-2.13,1.61-3.47-2-4-1,.33-2,.67-3,1,.5,1.22.83,2.38,1,3.5-1.17.5-2,1.33-2.5,2.5-.33-1-.67-2-1-3-1.67.84-1.83.34-.5-1.5-1-.33-2-.67-3-1,1.54-.29,2.88-.96,4-2-2.43-.25-4.77.25-7,1.5-.61-.12-.94-.46-1-1,12.57-5.39,25.57-8.72,39-10Z"/>
    <g>
      <path class="cls-107" d="M257.98,21.73c1.33-.45,2.67-.88,4.02-1.3-1.72.43-3.04.87-4.02,1.3Z"/>
      <path class="cls-107" d="M257.98,21.73c-18.53,6.23-35.53,15.46-50.98,27.7-.92.37-1.75.87-2.5,1.5-.4-.23-.57-.56-.5-1-2.46,1.57-5.81,3.82-9.65,6.71-5.39,4.06-11.46,9.19-19.35,17.29-8.54,8.77-21.9,20.94-33,41-13.83,24.99-25.49,50.99-35,78-.13.74.04,1.41.5,2,8.06-19.78,16.39-39.45,25-59,12.12-24.14,28.12-45.47,48-64,.64,1.11,1.14,2.28,1.5,3.5-2.99,3.19-2.33,5.36,2,6.5-5.08,5.08-9.75,10.41-14,16,19.02-19.04,40.02-35.37,63-49-1.24-.31-1.24-.81,0-1.5,7.54-3.94,15.21-7.61,23-11-1.67-1-3.33-2-5-3,3.88.35,3.88-.48,0-2.5.85-3.11,2.02-3.45,3.5-1,1.71-1.42,3.05-1.09,4,1,.68-1.28.52-2.45-.5-3.5,1.59.62,2.93.28,4-1-6.26-1.55-7.59-3.12-4.02-4.7Z"/>
    </g>
    <path class="cls-47" d="M324,22.93c-13.43,1.28-26.43,4.61-39,10-28.55,11.56-52.55,29.22-72,53-3.67,2.83-6.83,6.17-9.5,10-5.81,7.29-10.97,14.96-15.5,23-5,7.33-10,14.67-15,22-6.69,11.53-13.02,23.37-19,35.5-1.86,1.3-3.86,1.64-6,1-1.33-.67-1.33-1.33,0-2-2.89.83-5.39,0-7.5-2.5-1.4,1.61-3.07,2.94-5,4-1.41-1.42-2.58-1.26-3.5.5,1.13,1.02.8,1.68-1,2,2.76,1.54,2.6,2.71-.5,3.5-1.4,0-2.9-.33-4.5-1-.83,1-1.67,2-2.5,3,.54-3.11,1.71-6.11,3.5-9-.12-.61-.46-.94-1-1,10.33-28.34,24.99-54.01,44-77,19.02-19.04,40.02-35.37,63-49,16.37-8.78,33.37-15.78,51-21,13.16-2.97,26.5-4.64,40-5Z"/>
    <path class="cls-87" d="M631,207.93c-5.44-36.33-17.77-69.99-37-101-4.9-6.49-10.44-13.28-16.7-20.21-4.15-4.59-8.27-8.85-12.3-12.79-6.83-5.25-13.83-10.25-21-15-4.48-2.29-9.31-4.56-14.48-6.74-3.25-1.37-6.43-2.62-9.52-3.76-15.33-4.24-30.66-4.57-46-1-4.63-5.63-9.63-10.97-15-16-7.07-5.44-16.78-11.82-29.17-17.2-14.67-6.37-27.96-9.11-37.75-10.35-1.05,0-2.08.17-3.08.55,26.72,4.34,50.72,14.67,72,31,3.61,3.1,6.61,6.6,9,10.5,1.44,2.09,3.44,3.43,6,4,16.88-4.49,33.54-3.66,50,2.5,27.99,12.66,50.49,31.82,67.5,57.5,19.45,31.67,31.78,66,37,103,.49-1.63.66-3.3.5-5Z"/>
    <path class="cls-103" d="M190,198.93c-6.94,5.81-14.27,11.14-22,16-1.24-.31-1.24-.81,0-1.5,2.51-1.42,4.84-3.09,7-5-.79-3.1-1.96-3.26-3.5-.5-.84-2.98-1.51-6.31-2-10-2.85-.93-3.01-2.43-.5-4.5-1.13-1.02-.8-1.68,1-2-1.02-1.05-1.18-2.22-.5-3.5,1.34,1.4,2.18,1.07,2.5-1-1.44-1.85-1.1-3.01,1-3.5-1.05-2.34-.72-5.01,1-8-.4-.95-1.07-1.61-2-2l2-2c-1.41-.37-2.41-1.2-3-2.5,3.33-1.97,4.33-4.64,3-8,5.71,0,6.04.49,1,1.5.63.75,1.13,1.58,1.5,2.5,1.08-1.89,2.41-2.23,4-1,.27-1.66-.23-3.16-1.5-4.5,1.42-1.71,1.09-3.05-1-4,.67-.33,1.33-.67,2-1-2.86-2.4-2.7-3.24.5-2.5.37-.92.87-1.75,1.5-2.5,0-1.58-.33-3.25-1-5,.73-1.4,1.23-2.9,1.5-4.5,2.03,2.4,3.53,1.9,4.5-1.5l-1-1c2.48-1.97,4.48-4.3,6-7-2.67-1-2.67-2,0-3-1.33-1.33-1.33-2.67,0-4-1.55-1.44-2.38-3.27-2.5-5.5-.38.56-.88.89-1.5,1,4.53-8.04,9.69-15.71,15.5-23,2.67-3.83,5.83-7.17,9.5-10,5.67-5.51,11.51-10.84,17.5-16,.5.17,1,.33,1.5.5-1.59,2.39-2.59,5.05-3,8,1.21,2.1,2.05,1.93,2.5-.5l1.5,1.5c-.33,1-.67,2-1,3,1.24-.08,2.24.09,3,.5-1.55.95-3.21,1.29-5,1-.2,1.89.46,3.39,2,4.5-2.65.32-3.31,1.48-2,3.5-2.54,1.44-2.54,2.94,0,4.5-1.95.95-3.62,2.29-5,4l1,1c-1.2.9-2.04,2.07-2.5,3.5l-1-1c-1.36,1.42-2.86,2.26-4.5,2.5,1.26,1.11,2.43,1.28,3.5.5.27,1.43-.4,2.43-2,3-.33-.67-.67-1.33-1-2-.71,1.47-1.88,2.14-3.5,2v4c-1.05-.15-2.05.02-3,.5,1.89.97,3.89,1.64,6,2-1.67.33-3.33.67-5,1,1.8.26,3.8.92,6,2-1.29.49-2.63.66-4,.5.16,2.36,0,4.69-.5,7l-1-1c-1.46,2.47-2.46,5.14-3,8l-1-1c-.49,1.05-.33,2.05.5,3-1.23.78-2.56,1.28-4,1.5,1.11,2.74,1.28,5.57.5,8.5-1.2.57-2.37,1.24-3.5,2-1.14.92-1.14,1.76,0,2.5-1.9,1.45-3.57,3.11-5,5,3.17.58,3.5,1.58,1,3,1.15,2.08.48,3.58-2,4.5-.95-.83-1.95-.99-3-.5.19,1.9.19,3.74,0,5.5-.52.69-1.19,1.19-2,1.5,1.54.29,2.88.96,4,2-1.05.49-2.05.33-3-.5-.85,1.02-1.85,1.86-3,2.5,1.17.42,2.17,1.08,3,2-.95.62-1.78.45-2.5-.5-.71,1.58-1.54,3.08-2.5,4.5,4.42,3.42,4.75,7.42,1,12,.83,2.7,1.17,5.2,1,7.5Z"/>
    <path class="cls-96" d="M289,75.93c-13.59,5.29-25.25,13.29-35,24-1.96,1.46-3.8,3.13-5.5,5-.33-.67-.67-1.33-1-2-1.51,1.8-1.67,3.63-.5,5.5-1.92,1.46-2.59,3.13-2,5-1.8.32-2.13.98-1,2-1.08,2.17-2.42,4.17-4,6,1.08,1.73,1.24,3.56.5,5.5-1.36-2.86-3.19-3.36-5.5-1.5,2.49.63,2.49,1.46,0,2.5,1.31.76,1.81,1.76,1.5,3-1-.33-2-.67-3-1-.51,1.5,0,2.66,1.5,3.5l-3.5,3.5-1-1c-1.31,1.63-1.81,3.3-1.5,5-.69-.52-1.19-1.19-1.5-2-.66,1.61-.16,2.77,1.5,3.5-2.38.97-2.04,1.64,1,2-1.53,1.37-3.03,1.87-4.5,1.5-.37.92-.87,1.75-1.5,2.5,1.46.42,1.96,1.26,1.5,2.5l-1-1c-4.36.76-4.52,1.93-.5,3.5-2.27,1.82-3.1,3.98-2.5,6.5l-1-1c-.67,1.33-1.33,2.67-2,4-.33-.67-.67-1.33-1-2-1.07.69-2.23,1.19-3.5,1.5,5,2.08,5,4.41,0,7,.95.48,1.95.65,3,.5-.67,2-1.33,4-2,6-1.05-.15-2.05.02-3,.5.56,1.57-.11,2.9-2,4,.23.4.56.57,1,.5-6.39,6.72-13.39,12.72-21,18,.17-2.3-.17-4.8-1-7.5,3.75-4.58,3.42-8.58-1-12,.96-1.42,1.79-2.92,2.5-4.5.72.95,1.55,1.12,2.5.5-.83-.92-1.83-1.58-3-2,1.15-.64,2.15-1.48,3-2.5.95.83,1.95.99,3,.5-1.12-1.04-2.46-1.71-4-2,.81-.31,1.48-.81,2-1.5.19-1.76.19-3.6,0-5.5,1.05-.49,2.05-.33,3,.5,2.48-.92,3.15-2.42,2-4.5,2.5-1.42,2.17-2.42-1-3,1.43-1.89,3.1-3.55,5-5-1.14-.74-1.14-1.58,0-2.5,1.13-.76,2.3-1.43,3.5-2,.78-2.93.61-5.76-.5-8.5,1.44-.22,2.77-.72,4-1.5-.83-.95-.99-1.95-.5-3l1,1c.54-2.86,1.54-5.53,3-8l1,1c.5-2.31.66-4.64.5-7,1.37.16,2.71-.01,4-.5-2.2-1.08-4.2-1.74-6-2,1.67-.33,3.33-.67,5-1-2.11-.36-4.11-1.03-6-2,.95-.48,1.95-.65,3-.5v-4c1.62.14,2.79-.53,3.5-2,.33.67.67,1.33,1,2,1.6-.57,2.27-1.57,2-3-1.07.78-2.24.61-3.5-.5,1.64-.24,3.14-1.08,4.5-2.5l1,1c.46-1.43,1.3-2.6,2.5-3.5l-1-1c1.38-1.71,3.05-3.05,5-4-2.54-1.56-2.54-3.06,0-4.5-1.31-2.02-.65-3.18,2-3.5-1.54-1.11-2.2-2.61-2-4.5,1.79.29,3.45-.05,5-1-.76-.41-1.76-.58-3-.5.33-1,.67-2,1-3l-1.5-1.5c-.45,2.43-1.29,2.6-2.5.5.41-2.95,1.41-5.61,3-8-.5-.17-1-.33-1.5-.5-5.99,5.16-11.83,10.49-17.5,16,19.45-23.78,43.45-41.44,72-53,.06.54.39.88,1,1,2.23-1.25,4.57-1.75,7-1.5-1.12,1.04-2.46,1.71-4,2,1,.33,2,.67,3,1-1.33,1.84-1.17,2.34.5,1.5.33,1,.67,2,1,3,.5-1.17,1.33-2,2.5-2.5-.17-1.12-.5-2.28-1-3.5,1-.33,2-.67,3-1,3.61.53,4.28,1.87,2,4,1.59,1.95,1.25,3.45-1,4.5.12,1.27.45,2.6,1,4-1.5.83-2.67,2-3.5,3.5-.33-.67-.67-1.33-1-2-1.63,1.32-1.46,2.65.5,4-1.21,1.22-1.21,2.39,0,3.5-2.1.79-3.44,2.29-4,4.5-.59-.21-1.09-.54-1.5-1-.66,1.61-.16,2.77,1.5,3.5-1.8.32-2.13.98-1,2-2.05.53-3.88,1.36-5.5,2.5-1.76,3.11-2.59,6.44-2.5,10,2.08.03,3.92-.64,5.5-2,.46.59.63,1.26.5,2Z"/>
    <path class="cls-32" d="M225,169.93h-1c.07-.44-.1-.77-.5-1-4.04,4.2-8.2,8.2-12.5,12-.44.07-.77-.1-1-.5,1.89-1.1,2.56-2.43,2-4,.95-.48,1.95-.65,3-.5.67-2,1.33-4,2-6-1.05.15-2.05-.02-3-.5,5-2.59,5-4.92,0-7,1.27-.31,2.43-.81,3.5-1.5.33.67.67,1.33,1,2,.67-1.33,1.33-2.67,2-4l1,1c-.6-2.52.23-4.68,2.5-6.5-4.02-1.57-3.86-2.74.5-3.5l1,1c.46-1.24-.04-2.08-1.5-2.5.63-.75,1.13-1.58,1.5-2.5,1.47.37,2.97-.13,4.5-1.5-3.04-.36-3.38-1.03-1-2-1.66-.73-2.16-1.89-1.5-3.5.31.81.81,1.48,1.5,2-.31-1.7.19-3.37,1.5-5l1,1,3.5-3.5c-1.51-.84-2.01-2-1.5-3.5,1,.33,2,.67,3,1,.31-1.24-.19-2.24-1.5-3,2.49-1.04,2.49-1.87,0-2.5,2.31-1.86,4.14-1.36,5.5,1.5.74-1.94.58-3.77-.5-5.5,1.58-1.83,2.92-3.83,4-6-1.13-1.02-.8-1.68,1-2-.59-1.87.08-3.54,2-5-1.17-1.87-1.01-3.7.5-5.5.33.67.67,1.33,1,2,1.7-1.87,3.54-3.54,5.5-5,8.16-5.58,16.83-10.42,26-14.5,24.79-9.45,49.12-8.45,73,3-5.67.33-11.33.67-17,1-49.85,9.38-86.85,36.21-111,80.5Z"/>
    <path class="cls-1" d="M398,126.93c-.77.42-1.6.76-2.5,1-3.8-1.34-7.64-2.34-11.5-3-18.77-2.64-37.11-.81-55,5.5-22.11,7.98-41.44,20.15-58,36.5-.4-1.02-1.06-1.19-2-.5l-16.5,16.5c-2.08-1.08-3.92-1.74-5.5-2,1.61-.93,3.28-1.76,5-2.5-1.15-.91-.99-1.75.5-2.5.33.67.67,1.33,1,2,.67-1.67.67-3.33,0-5-3.02,1.29-3.36.62-1-2,1.77.78,3.6.61,5.5-.5-3.88-1.86-3.55-3.19,1-4-2.36-.59-3.36-2.09-3-4.5,4.72.27,5.05-.56,1-2.5,1.44-.22,2.77-.72,4-1.5-1.22.39-2.05-.28-2.5-2-2.07,2.92-3.4,2.58-4-1-2.7,2.87-5.54,5.54-8.5,8,18.74-24.05,43.07-39.55,73-46.5,27.65-5.23,53.98-1.73,79,10.5Z"/>
    <path class="cls-42" d="M170,97.93c-19.01,22.99-33.67,48.66-44,77-4.65,9.29-9.31,18.63-14,28-7.92,11.1-16.09,22.1-24.5,33-.77.79-1.58,1.58-2.44,2.39-.64.6-1.28,1.18-1.91,1.74-.64.69-1.29,1.39-1.96,2.09-.9.95-1.8,1.88-2.7,2.78-.4-.23-.57-.56-.5-1,10.46-16.58,20.12-33.58,29-51-.13.74.04,1.41.5,2,8.06-19.78,16.39-39.45,25-59,12.12-24.14,28.12-45.47,48-64,.64,1.11,1.14,2.27,1.5,3.5-2.99,3.19-2.33,5.36,2,6.5-5.08,5.08-9.75,10.41-14,16Z"/>
    <path class="cls-69" d="M168,214.93c-16.23,10.62-33.23,19.95-51,28-5.86,3.09-11.52,6.43-17,10,9.38-9.78,18.05-20.11,26-31,7.88-9.4,15.05-19.4,21.5-30,9.04-16.74,17.54-33.74,25.5-51,5-7.33,10-14.67,15-22,.62-.11,1.12-.44,1.5-1,.12,2.23.95,4.06,2.5,5.5-1.33,1.33-1.33,2.67,0,4-2.67,1-2.67,2,0,3-1.52,2.7-3.52,5.03-6,7l1,1c-.97,3.4-2.47,3.9-4.5,1.5-.27,1.6-.77,3.1-1.5,4.5.67,1.75,1.01,3.42,1,5-.63.75-1.13,1.58-1.5,2.5-3.2-.74-3.36.1-.5,2.5-.67.33-1.33.67-2,1,2.09.95,2.42,2.29,1,4,1.27,1.34,1.77,2.84,1.5,4.5-1.59-1.23-2.92-.89-4,1-.37-.92-.87-1.75-1.5-2.5,5.04-1.01,4.71-1.51-1-1.5,1.33,3.36.33,6.03-3,8,.59,1.3,1.59,2.13,3,2.5l-2,2c.93.39,1.6,1.05,2,2-1.72,2.99-2.05,5.66-1,8-2.1.49-2.44,1.65-1,3.5-.32,2.07-1.16,2.4-2.5,1-.68,1.28-.52,2.45.5,3.5-1.8.32-2.13.98-1,2-2.51,2.07-2.35,3.57.5,4.5.49,3.69,1.16,7.02,2,10,1.54-2.76,2.71-2.6,3.5.5-2.16,1.91-4.49,3.58-7,5-1.24.69-1.24,1.19,0,1.5Z"/>
    <path class="cls-65" d="M271,166.93c-19.96,18.97-38.3,39.3-55,61-13.21-.81-24.37,3.52-33.5,13-2.67,3.99-3.67,8.32-3,13,.71.88,1.54,1.55,2.5,2-2.96,3.46-6.13,6.8-9.5,10-.38-.56-.88-.89-1.5-1,.09-7.09.93-14.09,2.5-21,24.26-23.74,46.43-49.08,66.5-76,2-1.67,4-3.33,6-5,2.96-2.46,5.8-5.13,8.5-8,.6,3.58,1.93,3.92,4,1,.45,1.72,1.28,2.39,2.5,2-1.23.78-2.56,1.28-4,1.5,4.05,1.94,3.72,2.77-1,2.5-.36,2.41.64,3.91,3,4.5-4.55.81-4.88,2.14-1,4-1.9,1.11-3.73,1.28-5.5.5-2.36,2.62-2.02,3.29,1,2,.67,1.67.67,3.33,0,5-.33-.67-.67-1.33-1-2-1.49.75-1.65,1.59-.5,2.5-1.72.74-3.39,1.57-5,2.5,1.58.26,3.42.92,5.5,2l16.5-16.5c.94-.69,1.6-.52,2,.5Z"/>
    <path class="cls-83" d="M173,140.93c-7.96,17.26-16.46,34.26-25.5,51-6.45,10.6-13.62,20.6-21.5,30-1.05.1-2.21.1-3.5,0-.22,1.88-.88,3.55-2,5-2.05-4.41-3.39-9.08-4-14-.67,1.33-1.33,1.33-2,0-2.48,4.3-3.98,3.97-4.5-1-1.2.35-1.2.85,0,1.5-1.33.67-2.67.67-4,0,2.4-3.31,4.4-6.81,6-10.5,4.69-9.37,9.35-18.7,14-28,.54.06.88.39,1,1-1.79,2.89-2.96,5.89-3.5,9,.83-1,1.67-2,2.5-3,1.6.67,3.1,1,4.5,1,3.1-.79,3.26-1.96.5-3.5,1.8-.32,2.13-.98,1-2,.92-1.76,2.09-1.92,3.5-.5,1.93-1.06,3.6-2.39,5-4,2.11,2.49,4.61,3.33,7.5,2.5-1.33.67-1.33,1.33,0,2,2.14.64,4.14.3,6-1,5.98-12.13,12.31-23.97,19-35.5Z"/>
    <path class="cls-74" d="M224,169.93c-16.48,25.07-35.48,48.23-57,69.5-12.19,10.59-25.52,19.42-40,26.5-2.57-.96-4.91-2.46-7-4.5,1.1-1.68.77-3.18-1-4.5-.69.52-1.19,1.19-1.5,2-1.05-1.61-2.55-2.27-4.5-2-.31-2.78-1.31-5.28-3-7.5,1.77-2.39,4.11-4.06,7-5,1.24-.69,1.24-1.19,0-1.5,17.77-8.05,34.77-17.38,51-28,7.73-4.86,15.06-10.19,22-16,7.61-5.28,14.61-11.28,21-18,4.3-3.8,8.46-7.8,12.5-12,.4.23.57.56.5,1Z"/>
    <path class="cls-60" d="M112,202.93c-1.6,3.69-3.6,7.19-6,10.5,1.33.67,2.67.67,4,0-1.2-.65-1.2-1.15,0-1.5.52,4.97,2.02,5.3,4.5,1,.67,1.33,1.33,1.33,2,0,.61,4.92,1.95,9.59,4,14,1.12-1.45,1.78-3.12,2-5,1.29.1,2.45.1,3.5,0-7.95,10.89-16.62,21.22-26,31-5,4.67-10,9.33-15,14-.86-1.19-1.86-2.36-3-3.5-1.28-.68-2.45-.52-3.5.5-.36-3.04-1.03-3.38-2-1-.29-1.54-.96-2.88-2-4-.33.67-.67,1.33-1,2-.94-2.85-.44-5.35,1.5-7.5-.67-.67-1.33-.67-2,0-10.94,15.71-18.77,32.88-23.5,51.5-.46-.59-.63-1.26-.5-2,5.18-22.02,14.84-41.68,29-59-.07.44.1.77.5,1,.89-.9,1.79-1.83,2.7-2.78.67-.7,1.32-1.4,1.96-2.09.63-.55,1.27-1.13,1.91-1.74.86-.81,1.67-1.6,2.44-2.39,8.41-10.9,16.58-21.9,24.5-33Z"/>
    <path class="cls-23" d="M216,227.93c10.51.67,20.17,3.84,29,9.5,5.97,4.43,8.13,10.27,6.5,17.5-1.27,3.14-3.6,4.8-7,5-7.76-2.7-15.59-5.2-23.5-7.5-13.43-2.91-26.43-1.74-39,3.5-.96-.45-1.79-1.12-2.5-2-.67-4.68.33-9.01,3-13,9.13-9.48,20.29-13.81,33.5-13Z"/>
    <path class="cls-89" d="M394,252.93c-.71-.9-1.71-1.24-3-1-22.28-2.83-44.11-.83-65.5,6-1.23-.36-2.39-.86-3.5-1.5-5.06-5.66-5.23-11.49-.5-17.5,7.69-6.26,16.52-9.92,26.5-11,13.83-1.87,27.5-1.04,41,2.5,10.33,2.41,18.5,7.91,24.5,16.5,1.25,2.58,1.58,5.24,1,8-.8,1.3-1.97,1.97-3.5,2-5.58-1.75-11.25-3.08-17-4Z"/>
    <path class="cls-72" d="M117,242.93c1.24.31,1.24.81,0,1.5-2.89.94-5.23,2.61-7,5,1.69,2.22,2.69,4.72,3,7.5,1.95-.27,3.45.39,4.5,2,.31-.81.81-1.48,1.5-2,1.77,1.32,2.1,2.82,1,4.5,2.09,2.04,4.43,3.54,7,4.5-1,1.67-2.33,3-4,4-10.84,6.5-20.51,14.5-29,24-.89-.76-1.56-1.76-2-3,1.43-1.83,1.93-3.83,1.5-6-.84,2.34-2.17,4.34-4,6,1.65-2.25,1.99-4.58,1-7-1.42.09-2.92.43-4.5,1,.59,1.3,1.59,2.13,3,2.5-.67.17-1.33.33-2,.5-2.03-2.35-4.37-3.68-7-4,.21-.59.54-1.09,1-1.5-2.51-1.52-3.34-3.68-2.5-6.5,2.13-1.61,3.63-3.61,4.5-6,.67-1,1.33-2,2-3,5-4.67,10-9.33,15-14,5.48-3.57,11.14-6.91,17-10Z"/>
    <path class="cls-50" d="M369,273.93c12.33,2,20.33,9,24,21,.07,3.57-1.59,4.74-5,3.5-2.88-4.55-6.72-8.05-11.5-10.5,5.01,13.78,4.51,27.45-1.5,41-2.24,2.39-4.9,4.23-8,5.5-9.04,1.97-14.88-1.53-17.5-10.5-1.52-7.6-1.86-15.27-1-23,.65-5.29,2.48-10.12,5.5-14.5-6.6,1.48-12.27,4.81-17,10-1.29.49-2.63.66-4,.5-.16-1.7,0-3.37.5-5,7.92-13.55,19.76-19.55,35.5-18Z"/>
    <path class="cls-54" d="M83,269.93c-.87,2.39-2.37,4.39-4.5,6-.84,2.82,0,4.98,2.5,6.5-.46.41-.79.91-1,1.5,2.63.32,4.97,1.65,7,4,.67-.17,1.33-.33,2-.5-1.41-.37-2.41-1.2-3-2.5,1.58-.57,3.08-.91,4.5-1,.99,2.42.65,4.75-1,7,1.83-1.66,3.16-3.66,4-6,.43,2.17-.07,4.17-1.5,6,.44,1.24,1.11,2.24,2,3-6.45,7.56-10.78,16.22-13,26-.59-2.49-.76-5.16-.5-8-2.09,1.29-3.42.62-4-2-.31.81-.81,1.48-1.5,2-.38-1.52-.55-3.19-.5-5-.67.67-1.33,1.33-2,2-1.2-.97-1.7-1.97-1.5-3-1.08,1.17-1.92,2.5-2.5,4-.33-.33-.67-.67-1-1-.31.81-.81,1.48-1.5,2-1-1.33-2-1.33-3,0-1.18-1.02-2.18-2.18-3-3.5,1.59-4.68,3.59-9.18,6-13.5-.12-.61-.46-.94-1-1,4.5-8.84,10.5-16.5,18-23Z"/>
    <path class="cls-88" d="M213,273.93c15.39-.82,25.39,6.01,30,20.5,0,1.4-.51,2.57-1.5,3.5-1-1.33-2-2.67-3-4-.33,7.33-.67,14.67-1,22-1.12,6.42-3.96,11.92-8.5,16.5-7.23,4.22-13.06,2.72-17.5-4.5-6.85-15.03-5.69-29.36,3.5-43-8.2,1.11-15.2,4.94-21,11.5-2.42.92-3.75.08-4-2.5,3.98-10.98,11.64-17.65,23-20Z"/>
    <path class="cls-56" d="M85,266.93c-.67,1-1.33,2-2,3-7.5,6.5-13.5,14.16-18,23-6.32,11.28-10.65,23.28-13,36-.33,2.67-.67,5.33-1,8-.61,8.61.39,16.94,3,25,1.05,5.09,2.38,10.09,4,15-12.86-23.53-15.86-48.19-9-74-.13.74.04,1.41.5,2,4.73-18.62,12.56-35.79,23.5-51.5.67-.67,1.33-.67,2,0-1.94,2.15-2.44,4.65-1.5,7.5.33-.67.67-1.33,1-2,1.04,1.12,1.71,2.46,2,4,.97-2.38,1.64-2.04,2,1,1.05-1.02,2.22-1.18,3.5-.5,1.14,1.14,2.14,2.31,3,3.5Z"/>
    <path class="cls-97" d="M123,269.93c-25.36,36.9-28.36,75.57-9,116-.66,1.15-.83,2.48-.5,4-.56-.52-1.23-.85-2-1-2.5,1.64-5,3.31-7.5,5-1.11-1.09-2.11-1.09-3,0,.67,1.33,1.33,2.67,2,4-.12.61-.46.94-1,1-5.06-10.46-10.4-20.79-16-31-1.87-4.94-3.54-9.94-5-15-.33-2.67-.67-5.33-1-8v-16c-.24-3.11.1-6.11,1-9,2.22-9.78,6.55-18.44,13-26,8.49-9.5,18.16-17.5,29-24Z"/>
    <path class="cls-80" d="M65,292.93c.54.06.88.39,1,1-2.41,4.32-4.41,8.82-6,13.5.82,1.32,1.82,2.48,3,3.5,1-1.33,2-1.33,3,0,.69-.52,1.19-1.19,1.5-2,.33.33.67.67,1,1,.58-1.5,1.42-2.83,2.5-4-.2,1.03.3,2.03,1.5,3,.67-.67,1.33-1.33,2-2-.05,1.81.12,3.48.5,5,.69-.52,1.19-1.19,1.5-2,.58,2.62,1.91,3.29,4,2-.26,2.84-.09,5.51.5,8-.9,2.89-1.24,5.89-1,9-.82,2.47-1.32,5.14-1.5,8-.33-3.33-.67-6.67-1-10-.67,1.33-1.67,2.33-3,3-3.73-1.23-7.4-1.23-11,0-3.75-1.97-7.59-2.3-11.5-1,2.35-12.72,6.68-24.72,13-36Z"/>
    <path class="cls-91" d="M272,336.93c-2.99,8.09-6.49,16.09-10.5,24-1.09,3.11-.25,5.45,2.5,7,2.15,2.25,4.82,3.75,8,4.5,4.67.33,9.33.67,14,1,1.05,1.39,1.22,2.89.5,4.5-6.87,7.62-15.37,10.46-25.5,8.5-14.13-5.42-18.63-15.25-13.5-29.5,6.67-11.33,13.33-22.67,20-34,1.67-2.67,3.33-2.67,5,0,.17,4.66,0,9.33-.5,14Z"/>
    <path class="cls-93" d="M564,310.93c.16,1.7,0,3.37-.5,5-3.31-3.32-7.31-4.65-12-4-5.8-.02-10.97,1.82-15.5,5.5-9.77,9.44-17.6,20.27-23.5,32.5-.46-.59-.63-1.26-.5-2,2.48-16.47,9.82-30.3,22-41.5,8.3-5.98,16.97-6.81,26-2.5,2.12,1.9,3.45,4.23,4,7Z"/>
    <path class="cls-79" d="M80,328.93v16c-.72-.42-1.22-1.08-1.5-2-.33.33-.67.67-1,1-1.57-.86-3.24-1.53-5-2-2.2,1.09-4.37,2.09-6.5,3-3.3.18-6.64-.49-10-2-.41.76-.58,1.76-.5,3-.33-.33-.67-.67-1-1-.29,1.54-.96,2.88-2,4-.18-4.19-.68-8.19-1.5-12,.33-2.67.67-5.33,1-8,3.91-1.3,7.75-.97,11.5,1,3.6-1.23,7.27-1.23,11,0,1.33-.67,2.33-1.67,3-3,.33,3.33.67,6.67,1,10,.18-2.86.68-5.53,1.5-8Z"/>
    <path class="cls-62" d="M188,340.93c13.85-1.66,22.35,4.34,25.5,18,2.59,12.47-1.24,22.3-11.5,29.5-11.45,2.52-19.29-1.64-23.5-12.5-4.6-14.02-1.43-25.69,9.5-35Z"/>
    <path class="cls-77" d="M51,336.93c.82,3.81,1.32,7.81,1.5,12,1.04-1.12,1.71-2.46,2-4,.33.33.67.67,1,1-.08-1.24.09-2.24.5-3,3.36,1.51,6.7,2.18,10,2,2.13-.91,4.3-1.91,6.5-3,1.76.47,3.43,1.14,5,2,.33-.33.67-.67,1-1,.28.92.78,1.58,1.5,2,.33,2.67.67,5.33,1,8-.72.42-1.22,1.08-1.5,2-.33-.33-.67-.67-1-1-.19,2.4-.69,4.73-1.5,7-2.4-1.08-5.07-1.08-8,0,.15,1.05-.02,2.05-.5,3-1.02-1.13-1.68-.8-2,1-1-.67-2-1.33-3-2-1.07,3.58-1.74,7.25-2,11-3.52-3.42-6.02-7.42-7.5-12-2.61-8.06-3.61-16.39-3-25Z"/>
    <path class="cls-24" d="M564,310.93c2.2,29.35-10.8,48.85-39,58.5-13.12,2.2-17.95-3.3-14.5-16.5.2-1.88.7-3.55,1.5-5-.13.74.04,1.41.5,2,5.9-12.23,13.73-23.06,23.5-32.5,4.53-3.68,9.7-5.52,15.5-5.5,4.69-.65,8.69.68,12,4,.49-1.63.66-3.3.5-5Z"/>
    <path class="cls-70" d="M417,334.93c18.65.15,27.48,9.48,26.5,28-5.04,17.94-16.88,26.11-35.5,24.5-12.89-5.6-18.05-15.44-15.5-29.5,3.86-12.37,12.03-20.03,24.5-23Z"/>
    <path class="cls-82" d="M715.63,706.8c-.96-12.88-3.7-25.13-8.26-36.75l-2.87-6.73c-4.09-8.84-9.24-17.31-15.5-25.4-3.16-2.99-6.16-6.16-9-9.5,1.91-.2,4.57-.59,7.67-1.4,11.34-2.94,18.6-8.9,20.39-10.42,0,0,7.71-6.56,11.43-14.68,1.46-3.2,1.86-6.23,1.86-6.23.16-1.24.21-2.5.14-3.77-3.71,2.02-7.54,3.35-11.5,4,.9,1.45-1.77,1.62-8,.5-2.73-.41-5.4-1.08-8-2-19.21-11.89-25.21-28.39-18-49.5-.74.13-1.41-.04-2-.5,2.65-2.44,1.98-3.77-2-4-1-3.33-2-3.33-3,0,.67.33,1.33.67,2,1-2.09,3.33-4.76,6.16-8,8.5.38-1.96-.12-3.96-1.5-6-1.31,2.39-2.31,2.39-3,0-1.78.74-3.62,1.41-5.5,2l-1-1c4.24-13.87,9.07-27.87,14.5-42,1.11-3.62,1.44-7.29,1-11-1.12-.16-2.28-.5-3.5-1-1.09-1.85-2.43-3.52-4-5,1.4-1.34,1.07-2.18-1-2.5.39-1.81.39-3.47,0-5,1-.33,2-.67,3-1-2.13-1.26-4.3-1.76-6.5-1.5-.56-2.11-1.39-4.11-2.5-6,1.56-.85,3.06-.51,4.5,1,1.89-.81,2.55-2.15,2-4l-1,1c-1.07-.69-2.23-1.19-3.5-1.5,1.33-.67,1.33-1.33,0-2-1.76-.98-3.43-1.65-5-2,1.76-.98,3.43-1.65,5-2-.69-1.07-1.19-2.23-1.5-3.5-.41.46-.91.79-1.5,1-1.88-1.38-3.88-2.54-6-3.5,1.33-.33,2.67-.67,4-1-.67-.33-1.33-.67-2-1,.74-3.2-.1-3.36-2.5-.5-.17,1.33-.33,2.67-.5,4,1.01,7.89,1.68,15.39,2,22.5-3.21,16.18-6.88,32.18-11,48,.41,1.8.41,3.46,0,5,1.45,1.96,1.78,3.96,1,6,1.26,1.71,1.6,3.37,1,5,1.61,3.71,3.28,7.37,5,11-1.96-.22-3.79-1.05-5.5-2.5-.24-2.26-.74-4.43-1.5-6.5,1.13-1.02.8-1.68-1-2,1.66-.72,2.16-1.89,1.5-3.5-.72,1.66-1.89,2.16-3.5,1.5.88-1.36,1.21-2.86,1-4.5-1.05.15-2.05-.02-3-.5,1.27-1.8,1.27-3.63,0-5.5.88-.75,1.88-1.25,3-1.5-.75-1.49-1.59-1.65-2.5-.5-2.45-2.97-1.95-5.14,1.5-6.5-1.35-.77-2.18-1.94-2.5-3.5-1,1.33-2,2.67-3,4-1.48-2.28-3.15-2.28-5,0l-1.5-1.5c1.29-2.09,2.29-4.09,3-6-.63-.75-1.13-1.58-1.5-2.5-.42,1.17-1.09,2.17-2,3-1.7-.91-3.53-1.24-5.5-1-.12-4.71-.12-9.21,0-13.5-2.08-8.72-4.91-17.56-8.5-26.5-5.27-10.21-10.27-20.54-15-31-5.48-14.97-6.81-29.97-4-45,1.23-8.73,2.4-17.23,3.5-25.5-.63-.75-1.13-1.58-1.5-2.5-1.14.23-2.3.56-3.5,1,.88.75,1.88,1.25,3,1.5-.96,1.15-.62,2.15,1,3-.83.91-1.83,1.58-3,2,1.14.74,1.14,1.58,0,2.5-1.85,1.26-3.69,1.26-5.5,0-1.99,2.18-1.82,4.01.5,5.5-1.96.62-3.63.12-5-1.5-.69.53-1.19,1.19-1.5,2l-1-1c-1.07.69-2.23,1.19-3.5,1.5.67.33,1.33.67,2,1-1.59,1.05-3.09,2.21-4.5,3.5-.7-1.53-1.87-2.53-3.5-3-2.49,1.65-4.66,3.65-6.5,6-.49-1.05-.33-2.05.5-3-.74-.79-1.58-1.45-2.5-2-.78-2.7-1.28-5.54-1.5-8.5-.26-1.33-.92-2.33-2-3,3.63-2.63,6.97-5.63,10-9-.23-.4-.56-.57-1-.5-14.15,14.32-31.32,22.32-51.5,24-4.54-.1-9.04-.6-13.5-1.5-2.97-1.44-5.97-2.44-9-3-6.22,12.27-12.55,24.43-19,36.5-3.85,16.77-5.85,33.77-6,51v3c10.37-.23,20.7.27,31,1.5,18.81,1.91,34.81,9.41,48,22.5,8.11,8.97,12.11,19.64,12,32,35.47-7.07,61.8,5.26,79,37,7.41,13.67,12.74,28.17,16,43.5-.67.67-1.33.67-2,0-2.23-2.73-4.89-4.9-8-6.5-.44-.07-.77.1-1,.5,1.33,1,2.67,2,4,3-.56.38-.89.88-1,1.5,7.96,4.48,14.96,10.15,21,17,16.59,17.26,29.59,36.93,39,59,2.98,3.94,5.48,8.28,7.5,13,2.28,6.86,4.95,13.53,8,20,.24-.3.39-.62.48-.96.12-.51.04-.92.02-1.04-.14-.82-.66-5.97-1.37-13.13Z"/>
    <path class="cls-92" d="M81,352.93c1.46,5.06,3.13,10.06,5,15-.54.06-.88.39-1,1,1.33,2.67,2.67,5.33,4,8-.82.89-1.82,1.22-3,1-.42,2.53-.59,4.86-.5,7-1.6,1.37-3.43,2.37-5.5,3,1.11,1.47.61,2.47-1.5,3-1.8-1.27-3.63-1.27-5.5,0-.98-.48-1.81-1.14-2.5-2-.33,2-.67,4-1,6-1.11-1.21-1.61-.88-1.5,1-4.11-5.88-7.44-12.22-10-19-1.62-4.91-2.95-9.91-4-15,1.48,4.58,3.98,8.58,7.5,12,.26-3.75.93-7.42,2-11,1,.67,2,1.33,3,2,.32-1.8.98-2.13,2-1,.48-.95.65-1.95.5-3,2.93-1.08,5.6-1.08,8,0,.81-2.27,1.31-4.6,1.5-7,.33.33.67.67,1,1,.28-.92.78-1.58,1.5-2Z"/>
    <path class="cls-99" d="M705,462.43c-.58-10.9-2.75-21.73-6.5-32.5-2.35-5.39-5.19-10.39-8.5-15-2.64-5.93-5.8-11.6-9.5-17-8.42-11.84-17.09-23.51-26-35-7.26-11.87-12.93-24.53-17-38-4.92-20.54-8.09-41.21-9.5-62-1.31-28.11-5.47-55.78-12.5-83-10.03-40.91-30.86-75.08-62.5-102.5-15.44-12.55-33.1-19.88-53-22-10.94-1.82-21.27-.16-31,5-6.08,5.4-11.41,11.4-16,18,14.83,1.58,27.83,7.25,39,17,2.14,1.42,3.31,3.26,3.5,5.5-17.94-13.77-37.77-17.94-59.5-12.5-11.7,8.39-20.04,19.39-25,33,1.04,2.77,1.87,5.61,2.5,8.5,10.06,23.13,23.39,44.13,40,63,19.85,23.18,44.02,40.35,72.5,51.5,4.25,1.48,8.59,2.15,13,2-17.61-28.05-35.11-56.22-52.5-84.5-2.65-3.48-5.48-6.81-8.5-10,17.62,16.8,35.13,34.46,52.5,53,18.03,20.41,34.37,42.08,49,65,6.09,10.77,10.92,22.1,14.5,34,4.02,14.12,7.19,28.45,9.5,43,5.37,23.09,16.21,43.09,32.5,60,6.33,7.17,12.5,14.5,18.5,22,8.41,13.15,13.74,27.49,16,43,1.56-.84,2.56-.18,3,2,.97-1.89,1.64-3.89,2-6,1-.67,2-1.33,3-2,1.78,1.52,1.28,2.35-1.5,2.5,2.17.64,3.67,2.47,4.5,5.5,1.65,2.25,1.99,4.58,1,7l2-2c1.4.55,2.73.88,4,1,.5-1.17,1.33-2,2.5-2.5-.83-.91-1.83-1.58-3-2,.71-1.34.38-2.68-1-4,1.27-.31,2.43-.81,3.5-1.5.42,1.46,1.26,1.96,2.5,1.5v-5c.33-.17.67-.33,1-.5.98,1.48,2.15,2.82,3.5,4,.68-1.28.52-2.45-.5-3.5,1.48-1.9,2.48-1.57,3,1-1.26,2.44-.6,2.94,2,1.5-.87-2.86.13-5.03,3-6.5Z"/>
    <path class="cls-3" d="M340,394.93c3.73.28,4.89,2.28,3.5,6-5.88,7.86-13.38,13.7-22.5,17.5-18.95,6.95-38.28,8.28-58,4-5.89-1.61-11.23-4.28-16-8-2.73-2.24-3.39-4.91-2-8,.83-.17,1.67-.33,2.5-.5,32.73,11.64,63.57,7.97,92.5-11Z"/>
    <path class="cls-36" d="M86,367.93c5.6,10.21,10.94,20.54,16,31,1.2,2.93,2.2,5.93,3,9-.81,2.13-1.31,4.46-1.5,7-1.24.9-2.07,2.07-2.5,3.5,1.33,7.16.66,7.33-2,.5.4,2.33-.1,4.66-1.5,7-1.88-2.65-4.38-3.82-7.5-3.5,1,.33,2,.67,3,1-2.12,1.12-3.96,2.62-5.5,4.5-1.28-1.07-1.62-2.41-1-4-.67.67-1.33,1.33-2,2-2.1-.63-3.93-1.63-5.5-3,.15-1.05-.02-2.05-.5-3-.49,1.63-.66,3.3-.5,5-1.31-10.25-4.64-19.91-10-29-.11-1.88.39-2.21,1.5-1,.33-2,.67-4,1-6,.69.86,1.52,1.52,2.5,2,1.87-1.27,3.7-1.27,5.5,0,2.11-.53,2.61-1.53,1.5-3,2.07-.63,3.9-1.63,5.5-3-.09-2.14.08-4.47.5-7,1.18.22,2.18-.11,3-1-1.33-2.67-2.67-5.33-4-8,.12-.61.46-.94,1-1Z"/>
    <path class="cls-78" d="M114,385.93c8.76,14.18,15.92,29.18,21.5,45,2.94,10.13,4.11,20.46,3.5,31-.84.34-1.17,1.01-1,2-.83-4.57-1.83-9.24-3-14,.85-1.56.51-3.06-1-4.5.77-2.29-.06-4.12-2.5-5.5-.33,1-.67,2-1,3-1.57.56-2.9-.11-4-2-1.62,1.35-2.78,3.02-3.5,5-1.36-1.38-2.36-1.21-3,.5,1.12,2.28,1.95,4.45,2.5,6.5-3.18-1.25-5.51-.25-7,3-.33-.67-.67-1.33-1-2-.5,1.17-1.33,2-2.5,2.5,7,.5,7.34,1.16,1,2,2.47.11,4.47,1.11,6,3-3.46,1.57-6.79,3.4-10,5.5.29-1.33-.21-2.66-1.5-4-1.51,2.39-2.84,4.72-4,7-.71-.88-1.54-1.55-2.5-2,7.73-19.54,9.06-39.54,4-60-.8-3.07-1.8-6.07-3-9,.54-.06.88-.39,1-1-.67-1.33-1.33-2.67-2-4,.89-1.09,1.89-1.09,3,0,2.5-1.69,5-3.36,7.5-5,.77.15,1.44.48,2,1-.33-1.52-.16-2.85.5-4Z"/>
    <path class="cls-16" d="M138,463.93c-1.08,5.73-2.41,11.4-4,17-3.31,6.63-6.65,13.29-10,20-3.82,4.31-7.15,8.97-10,14-4.74,5.14-8.74,10.81-12,17-1.62.14-2.79-.53-3.5-2-.69,2.39-1.69,2.39-3,0-2.02,2.79-3.52,2.45-4.5-1-.33.67-.67,1.33-1,2-1.27-1.06-2.44-2.06-3.5-3-.67.67-1.33,1.33-2,2-1-1.67-2-3.33-3-5-3.26,1.34-3.76,1.01-1.5-1-.6-1.98-1.6-2.32-3-1-.81-.31-1.48-.81-2-1.5.1-2.46,1.77-3.63,5-3.5.16-1.7,0-3.37-.5-5-1.33-1.33-2.67-1.33-4,0-.33-1.33-.67-2.67-1-4-5.66,6.66-10.33,13.99-14,22-.69,1.24-1.19,1.24-1.5,0,3.05-7.1,6.88-13.77,11.5-20,4.51-5.7,9.01-11.36,13.5-17,6.67-8.02,12.34-16.68,17-26,.96.45,1.79,1.12,2.5,2,1.16-2.28,2.49-4.61,4-7,1.29,1.34,1.79,2.67,1.5,4,3.21-2.1,6.54-3.93,10-5.5-1.53-1.89-3.53-2.89-6-3,6.34-.84,6-1.5-1-2,1.17-.5,2-1.33,2.5-2.5.33.67.67,1.33,1,2,1.49-3.25,3.82-4.25,7-3-.55-2.05-1.38-4.22-2.5-6.5.64-1.71,1.64-1.88,3-.5.72-1.98,1.88-3.65,3.5-5,1.1,1.89,2.43,2.56,4,2,.33-1,.67-2,1-3,2.44,1.38,3.27,3.21,2.5,5.5,1.51,1.44,1.85,2.94,1,4.5,1.17,4.76,2.17,9.43,3,14Z"/>
    <path class="cls-4" d="M105,407.93c5.06,20.46,3.73,40.46-4,60-4.66,9.32-10.33,17.98-17,26,.07-.44-.1-.77-.5-1-1.95.61-3.78,1.44-5.5,2.5,2.49,1.58,2.33,3.08-.5,4.5-.33-1-.67-2-1-3-.32,1.56-1.15,2.73-2.5,3.5,2.4,1.47,2.24,2.97-.5,4.5-.33-1-.67-2-1-3-.42,1.17-1.09,2.17-2,3h-9c-.75-.63-1.58-1.13-2.5-1.5,1.18-1.67,2.51-3.17,4-4.5-.48-.98-1.14-1.81-2-2.5.67-.33,1.33-.67,2-1-.88-2.59-.88-4.92,0-7-1.88.51-3.71.34-5.5-.5-.09,3.35-1.26,3.85-3.5,1.5.95-.72,1.12-1.55.5-2.5-2.67,1.33-5.33,2.67-8,4,.7-3.77,1.86-7.43,3.5-11,7.71-8.21,14.88-16.88,21.5-26,5.79-9.51,8.29-19.84,7.5-31,1.57,1.37,3.4,2.37,5.5,3,.67-.67,1.33-1.33,2-2-.62,1.59-.28,2.93,1,4,1.54-1.88,3.38-3.38,5.5-4.5-1-.33-2-.67-3-1,3.12-.32,5.62.85,7.5,3.5,1.4-2.34,1.9-4.67,1.5-7,2.66,6.83,3.33,6.66,2-.5.43-1.43,1.26-2.6,2.5-3.5.19-2.54.69-4.87,1.5-7Z"/>
    <path class="cls-22" d="M161,437.93c1.28,11.33,1.11,22.66-.5,34-1.04,5.72-2.88,11.05-5.5,16,.07-.44-.1-.77-.5-1-.77,1.35-1.94,2.18-3.5,2.5,1.02,1.05,1.18,2.22.5,3.5-2.33-3.67-5.33-6.67-9-9-.48-.95-.65-1.95-.5-3-1.62.14-2.79-.53-3.5-2-.97,2.38-1.64,2.04-2-1-.67,1.33-1.33,2.67-2,4-.4-.23-.57-.56-.5-1,1.59-5.6,2.92-11.27,4-17-.17-.99.16-1.66,1-2,1.15-5.82,1.32-11.82.5-18-1.01-5.71-2.18-11.38-3.5-17,1.04.75,2.04,2.25,3,4.5,1,.33,2,.67,3,1-3.17,1.17-3.67,3-1.5,5.5,1.26-2.25,3.09-3.58,5.5-4-.2,1.89.46,3.39,2,4.5l-1,1c2.71,2.03,5.38,3.36,8,4-.7,1.56-.04,2.72,2,3.5.79-.85.46-1.69-1-2.5.83-1.69,1.83-1.85,3-.5.67-2.13,1.33-4.13,2-6Z"/>
    <path class="cls-105" d="M463,474.93v3c10.37-.23,20.7.27,31,1.5,18.81,1.91,34.81,9.41,48,22.5-16.66,12.37-30.33,27.37-41,45,3.92-14.36,2.42-28.03-4.5-41-2.26-2.93-5.1-5.1-8.5-6.5-8.55-2.48-17.22-3.98-26-4.5v-9c-.32-3.87.02-7.54,1-11Z"/>
    <path class="cls-67" d="M79.04,421.16c-.21-.53-.4-.95-.54-1.23-.12.28-.27.68-.38,1.16-.16.65-.19,1.16-.21,1.61-.03.57-.03,1.33.09,2.23-.11,1.21-.25,2.46-.43,3.76-.17,1.24-.37,2.46-.59,3.67-.29,1.4-.59,2.8-.88,4.2-1.08,4.64-3.06,10.92-6.88,17.7-4.42,7.83-9.61,13.29-13.43,16.73-3.04,2.43-7.23,6.05-11.79,10.95-1.99,2.13-3.33,3.73-5.42,6.26-3.92,4.73-7.61,9.64-11.08,14.74-3.63,5.92-6.13,12.25-7.5,19-.13.74.04,1.41.5,2,5.33-17.8,15.16-32.47,29.5-44,7.71-8.21,14.88-16.88,21.5-26,3.82-5.27,4.73-10.13,6.11-14.45,3.4-10.6,2.63-15.24,1.43-18.31Z"/>
    <path class="cls-13" d="M220,472.93c9.97,7.66,20.63,14.32,32,20,11.87,5.28,23.2,9.28,34,12-21.68-3.68-41.35-12.01-59-25-2.64-1.97-4.97-4.31-7-7Z"/>
    <path class="cls-21" d="M155,487.93c-.95,2.25-1.62,4.58-2,7-2.75,4.51-5.75,8.84-9,13-1.71-.11-3.71-.28-6-.5-1.17-.5-2-1.33-2.5-2.5l-1,1c-.49-1.29-.66-2.63-.5-4-1.05.15-2.05-.02-3-.5l1-1c-1.99-.57-3.49-1.74-4.5-3.5-.95,1.59-2.12,2.93-3.5,4,3.35-6.71,6.69-13.37,10-20-.07.44.1.77.5,1,.67-1.33,1.33-2.67,2-4,.36,3.04,1.03,3.38,2,1,.71,1.47,1.88,2.14,3.5,2-.15,1.05.02,2.05.5,3,3.67,2.33,6.67,5.33,9,9,.68-1.28.52-2.45-.5-3.5,1.56-.32,2.73-1.15,3.5-2.5.4.23.57.56.5,1Z"/>
    <path class="cls-35" d="M240,167.93c-20.07,26.92-42.24,52.26-66.5,76-1.57,6.91-2.41,13.91-2.5,21-2.5,25.43-4.16,50.93-5,76.5-.12,17.38,1.71,34.55,5.5,51.5,6.78,32.6,22.95,59.27,48.5,80,2.03,2.69,4.36,5.03,7,7,1.98,2.85,4.64,5.01,8,6.5-2.43-.03-4.6,1.14-6.5,3.5-.72-.95-1.55-1.12-2.5-.5,1.3,2.21,2.3,4.55,3,7,.13,2.23-.21,4.57-1,7l1.5,1.5c.77,6.97.27,13.8-1.5,20.5,1.25,3.12.91,6.12-1,9-.51,5.9-2.67,11.4-6.5,16.5-.33,2-.67,4-1,6-6.59,12.8-12.59,25.8-18,39-2.33,9.71-1.83,19.04,1.5,28-.26,3.94-.26,7.78,0,11.5.92.37,1.75.87,2.5,1.5.18,3.2.68,6.2,1.5,9-2.29,21.96-2.63,43.96-1,66-1.19-1.57-2.19-3.24-3-5-4.1-12.4-7.27-25.07-9.5-38-4.09,6.51-8.42,12.84-13,19-8.37,8.7-16.37,17.7-24,27-6.14,10.93-8.3,22.6-6.5,35-1.12-1.13-2.46-1.8-4-2-13.7-14.58-15.53-30.58-5.5-48,3.05-3.54,5.88-7.21,8.5-11,10.13-9.25,16.97-20.58,20.5-34,.67-8,.67-16,0-24-1.03-7.32-1.86-14.65-2.5-22-.41-10.68,1.25-21.01,5-31,5.68-12.38,9.68-25.38,12-39,3.47-22.62,1.64-44.96-5.5-67,.05,13.11-2.12,25.77-6.5,38-.81-1.51-.98-3.18-.5-5-3.95.73-7.61-.27-11-3-1.13-1.84-1.63-3.84-1.5-6,1.48.26,2.81-.07,4-1-.69-3.72-2.19-7.05-4.5-10-1.62,3.59-3.45,6.92-5.5,10,.38-2.42,1.05-4.75,2-7,2.62-4.95,4.46-10.28,5.5-16,1.61-11.34,1.78-22.67.5-34-.72-5.75-1.88-11.41-3.5-17-5.93-17.06-10.93-34.4-15-52-1.59-15.02-1.92-30.02-1-45-9.11,15.21-15.11,31.54-18,49-.86,9.72-.53,19.39,1,29,4.34,8.22,8.17,16.56,11.5,25,1.32,5.62,2.49,11.29,3.5,17,.82,6.18.65,12.18-.5,18,.61-10.54-.56-20.87-3.5-31-5.58-15.82-12.74-30.82-21.5-45-19.36-40.43-16.36-79.1,9-116,1.67-1,3-2.33,4-4,14.48-7.08,27.81-15.91,40-26.5,21.52-21.27,40.52-44.43,57-69.5h1c2.64-2.81,5.14-5.81,7.5-9,2.51,1.85,5.34,3.18,8.5,4-.63.92-.96,1.92-1,3Z"/>
    <path class="cls-57" d="M161,437.93c-.67,1.87-1.33,3.87-2,6-1.17-1.35-2.17-1.19-3,.5,1.46.81,1.79,1.65,1,2.5-2.04-.78-2.7-1.94-2-3.5-2.62-.64-5.29-1.97-8-4l1-1c-1.54-1.11-2.2-2.61-2-4.5-2.41.42-4.24,1.75-5.5,4-2.17-2.5-1.67-4.33,1.5-5.5-1-.33-2-.67-3-1-.96-2.25-1.96-3.75-3-4.5-3.33-8.44-7.16-16.78-11.5-25-1.53-9.61-1.86-19.28-1-29,2.89-17.46,8.89-33.79,18-49-.92,14.98-.59,29.98,1,45,4.07,17.6,9.07,34.94,15,52,1.62,5.59,2.78,11.25,3.5,17Z"/>
    <path class="cls-102" d="M184,538.93c-.92-.57-1.25.1-1,2-1.76-.14-3.43.19-5,1-1.64-3.13-3.64-5.97-6-8.5.67-.33,1.33-.67,2-1-1.68-1.18-3.01-2.68-4-4.5-2.38-.51-4.38-1.51-6-3,2.92-4.84,5.59-9.84,8-15,4.38-12.23,6.55-24.89,6.5-38,7.14,22.04,8.97,44.38,5.5,67Z"/>
    <path class="cls-19" d="M469,423.93c-4.35,4.19-8.18,8.85-11.5,14-4.37,4.54-8.87,8.87-13.5,13-4.03,4.69-8.36,9.03-13,13-18.5,13.59-38.5,24.59-60,33-20.73,7.12-42.07,10.79-64,11v25c1.82,9.56,1.15,18.9-2,28,12.7,7.26,26.37,9.92,41,8,9.54-1.22,18.87-3.39,28-6.5,24.51-10.35,45.51-25.52,63-45.5,8.71-10.04,17.05-20.38,25-31-.32-3.87.02-7.54,1-11,.15-17.23,2.15-34.23,6-51Z"/>
    <path class="cls-10" d="M172,509.93c-2.41,5.16-5.08,10.16-8,15-5.63,5.8-11.13,11.8-16.5,18-2.11,3.23-3.95,6.56-5.5,10-2.34,2.47-3.84,5.47-4.5,9-1.78,4.5-2.61,9.17-2.5,14v2c-.81,2.13-1.31,4.46-1.5,7,0-3.94-.84-7.6-2.5-11,.21-.59.54-1.09,1-1.5-1.75-.47-3.41-1.14-5-2l1-1c-1.67-5.93-2.83-12.1-3.5-18.5-1.03,4.27-1.7,8.61-2,13-.5-2.65-.66-5.31-.5-8,1.74-10.22,5.08-19.89,10-29,4.25-6.16,8.25-12.49,12-19,3.25-4.16,6.25-8.49,9-13,2.05-3.08,3.88-6.41,5.5-10,2.31,2.95,3.81,6.28,4.5,10-1.19.93-2.52,1.26-4,1-.13,2.16.37,4.16,1.5,6,3.39,2.73,7.05,3.73,11,3-.48,1.82-.31,3.49.5,5Z"/>
    <path class="cls-15" d="M144,507.93c-3.75,6.51-7.75,12.84-12,19-2.82,2.8-5.49,2.63-8-.5.67-.33,1.33-.67,2-1-4.6-2.67-8.27-5.67-11-9,2.66-3.53,2.33-4.03-1-1.5,2.85-5.03,6.18-9.69,10-14,1.38-1.07,2.55-2.41,3.5-4,1.01,1.76,2.51,2.93,4.5,3.5l-1,1c.95.48,1.95.65,3,.5-.16,1.37.01,2.71.5,4l1-1c.5,1.17,1.33,2,2.5,2.5,2.29.22,4.29.39,6,.5Z"/>
    <path class="cls-14" d="M307,514.93v18c-21.72,17.23-38.89,38.23-51.5,63-14.02,30.43-24.19,62.09-30.5,95-1.96,10.08-4.3,20.08-7,30-.84-41.29,3.66-81.96,13.5-122,5.89-20.78,15.22-39.78,28-57,4.33-3.23,8.49-6.57,12.5-10,10.54-7.75,22.21-13.42,35-17Z"/>
    <path class="cls-39" d="M474.5,536.93c-7.57-12.95-11.74-26.95-12.5-42v-9c-7.95,10.62-16.29,20.96-25,31-17.49,19.98-38.49,35.15-63,45.5-9.13,3.11-18.46,5.28-28,6.5-14.63,1.92-28.3-.74-41-8-.43,1.21-1.1,2.21-2,3-4.83,7.31-6.66,15.31-5.5,24,1.34,10.05,6.17,17.71,14.5,23,2.96,1.78,5.92,3.56,8.89,5.34,1.88.9,4.07,1.8,6.53,2.59,1.81.58,3.52,1.02,5.1,1.36,4.35.66,9.77,1.25,16.02,1.38,2.7.06,9.65.12,18.58-.98,16.23-2,28.39-6.54,32.55-8.18,10.43-4.11,17.55-8.49,27.33-14.5,7.56-4.65,11.92-6.9,17-11.5,14.27-12.92,26.27-27.59,36-44l-5.5-5.5Z"/>
    <path class="cls-28" d="M102,531.93c-4.14,8.1-7.47,16.43-10,25-.79,1.11-1.29,2.44-1.5,4-.33,6.33-.67,12.67-1,19-1.02-1.77-1.19-3.44-.5-5-.33-1-1-1.67-2-2-1.02,3.23-1.69,6.23-2,9-1.25.54-2.41,1.21-3.5,2-.33-1-.67-2-1-3-.33.33-.67.67-1,1-1.11-1.54-2.61-2.2-4.5-2-.09-3.1.41-3.43,1.5-1,.13-5.9-1.87-6.23-6-1-.33-.33-.67-.67-1-1-.22,1.88-.88,3.55-2,5,.26-1.45.1-2.78-.5-4-1.85.74-2.52,1.74-2,3-1.24-.75-2.57-1.08-4-1v4h-3c2.65,10.64,6.65,20.64,12,30,.17.99-.16,1.66-1,2,0-.67-.33-1-1-1-7.26-14.63-12.43-29.96-15.5-46-1.74-13.46.43-26.12,6.5-38,.31,1.24.81,1.24,1.5,0,3.67-8.01,8.34-15.34,14-22,.33,1.33.67,2.67,1,4,1.33-1.33,2.67-1.33,4,0,.49,1.63.66,3.3.5,5-3.23-.13-4.9,1.04-5,3.5.52.69,1.19,1.19,2,1.5,1.4-1.32,2.4-.98,3,1-2.26,2.01-1.76,2.34,1.5,1,1,1.67,2,3.33,3,5,.67-.67,1.33-1.33,2-2,1.06.94,2.23,1.94,3.5,3,.33-.67.67-1.33,1-2,.98,3.45,2.48,3.79,4.5,1,1.31,2.39,2.31,2.39,3,0,.71,1.47,1.88,2.14,3.5,2Z"/>
    <path class="cls-9" d="M50,479.93c-1.64,3.57-2.8,7.23-3.5,11,2.67-1.33,5.33-2.67,8-4,.62.95.45,1.78-.5,2.5,2.24,2.35,3.41,1.85,3.5-1.5,1.79.84,3.62,1.01,5.5.5-.88,2.08-.88,4.41,0,7-.67.33-1.33.67-2,1,.86.69,1.52,1.52,2,2.5-1.49,1.33-2.82,2.83-4,4.5.92.37,1.75.87,2.5,1.5h9c.91-.83,1.58-1.83,2-3,.33,1,.67,2,1,3,2.74-1.53,2.9-3.03.5-4.5,1.35-.77,2.18-1.94,2.5-3.5.33,1,.67,2,1,3,2.83-1.42,2.99-2.92.5-4.5,1.72-1.06,3.55-1.89,5.5-2.5.4.23.57.56.5,1-4.49,5.64-8.99,11.3-13.5,17-4.62,6.23-8.45,12.9-11.5,20-6.07,11.88-8.24,24.54-6.5,38,3.07,16.04,8.24,31.37,15.5,46v1c-1.02-1.59-2.21-3.3-3.61-5.06-1.5-1.88-2.98-3.52-4.39-4.94-8.9-7.41-17.4-15.41-25.5-24-12.2-17.16-17.37-36.16-15.5-57,.16-.45.32-.9.47-1.37.18-.55.36-1.1.53-1.63-.02.28-.01.52,0,.72.01.21.02.32.03.32.22.08,2.88-8.62,7.33-16.56,1.33-2.37,2.69-4.27,5.36-8.07,3.24-4.61,5.07-7.22,7.82-10.18,2.02-2.18,5.11-5.18,9.46-8.22Z"/>
    <path class="cls-106" d="M164,524.93c1.62,1.49,3.62,2.49,6,3,.99,1.82,2.32,3.32,4,4.5-.67.33-1.33.67-2,1,2.36,2.53,4.36,5.37,6,8.5,1.57-.81,3.24-1.14,5-1-.25-1.9.08-2.57,1-2-2.32,13.62-6.32,26.62-12,39-.31-1.24-.81-1.24-1.5,0-.33-1-.67-2-1-3-1.83,2.83-3.33,2.67-4.5-.5-1.24-.46-2.08.04-2.5,1.5-.44-2.18-1.44-2.84-3-2-2.1-1.22-1.93-2.05.5-2.5-.63-1.89-1.63-3.56-3-5,1-.33,2-.67,3-1-2.59-2.46-5.09-2.62-7.5-.5-.42-4.35-1.09-4.68-2-1-1.82-1.94-3.82-2.61-6-2-1.01-1.76-2.51-2.93-4.5-3.5,1.65-1.44,2.32-3.28,2-5.5,1.55-3.44,3.39-6.77,5.5-10,5.37-6.2,10.87-12.2,16.5-18Z"/>
    <path class="cls-90" d="M713.08,448.15c-.31-1.84-.58-3.22-.65-3.49-4.51-16.89-11.65-32.47-21.43-46.73-7.21-9.37-13.15-16.77-17.22-21.77,0,0-14.44-17.74-19.21-27.83-1.73-3.66-3.07-7.4-3.07-7.4-.33-.91-.83-2.38-1.73-5.41-2.68-9.08-5.36-20.41-5.58-21.3-.02-.06-.03-.12-.05-.18-.07-.33-.13-.67-.2-1.01-.15-.7-.3-1.4-.44-2.11-.06-.43-.11-.86-.16-1.29-.16-.98-.31-1.96-.47-2.93-.15-.9-.23-1.78-.23-2.68-2.95-23.33-5.51-46.69-7.64-70.09-.66,1.63-.99,3.47-1,5.5,1.85,17.14,3.35,34.3,4.5,51.5,2.12,17.8,6.12,35.14,12,52,10.38,19.37,22.71,37.37,37,54,13.84,17.68,22.17,37.68,25,60,1.13,10.92-.04,21.59-3.5,32,0,.05.01.08.02.13,0,0,0,0,0-.01-1.03,3.49-2.83,8.67-5.98,14.53-.99,1.85-1.87,3.31-3.29,5.55-7.14,11.31-11.51,16.64-17.94,26.51-1.37,2.1-3.41,5.3-5.8,9.3-7.21,21.11-1.21,37.61,18,49.5,2.6.92,5.27,1.59,8,2,6.23,1.12,8.9.95,8-.5-3.01-.06-7.39-.53-12.26-2.45-2.91-1.15-5.28-2.53-7.1-3.79-1.47-.87-3.39-2.17-5.39-4.01-1.05-.96-4.95-4.67-7.75-10.75-4.19-9.08-3.19-17.5-2.84-19.87,1.51-10.15,7.02-16.65,9.17-18.94,5.26-6.73,9.28-12.66,12.17-17.19,1.92-3.01,3.92-6.14,6.2-10.4,3.42-6.4,5.99-12.48,7.93-17.95h0c3.29-8.88,4.24-16.4,4.51-21.39.48-8.99-.86-16.91-1.57-21.03Z"/>
    <path class="cls-40" d="M132,526.93c-4.92,9.11-8.26,18.78-10,29h-1c-.93,1.07-1.27,2.4-1,4-2.31-3.38-5.31-4.21-9-2.5,2.76,1.54,2.6,2.71-.5,3.5-.33-1.33-.67-2.67-1-4-.84,2.96-1.84,3.3-3,1-.6,1.4-.43,2.73.5,4-.93,2.45-2.59,3.28-5,2.5,1.15-.91.99-1.75-.5-2.5-.61,3.77-1.61,3.77-3,0-.85,3.69-1.52,7.36-2,11-.97-2.38-1.64-2.04-2,1-.33-.67-.67-1.33-1-2-.19,2.54-.69,4.87-1.5,7-1.24-7.32-1.24-14.65,0-22,2.53-8.57,5.86-16.9,10-25,3.26-6.19,7.26-11.86,12-17,3.33-2.53,3.66-2.03,1,1.5,2.73,3.33,6.4,6.33,11,9-.67.33-1.33.67-2,1,2.51,3.13,5.18,3.3,8,.5Z"/>
    <path class="cls-2" d="M227,479.93c17.65,12.99,37.32,21.32,59,25,6.7,2.2,13.7,3.2,21,3v7c-12.79,3.58-24.46,9.25-35,17-30.94,17.45-50.77,43.45-59.5,78-2.81,11.86-4.64,23.86-5.5,36-.82-2.8-1.32-5.8-1.5-9-.75-.63-1.58-1.13-2.5-1.5-.26-3.72-.26-7.56,0-11.5-3.33-8.96-3.83-18.29-1.5-28,5.41-13.2,11.41-26.2,18-39,.33-2,.67-4,1-6,3.83-5.1,5.99-10.6,6.5-16.5,1.91-2.88,2.25-5.88,1-9,1.77-6.7,2.27-13.53,1.5-20.5l-1.5-1.5c.79-2.43,1.13-4.77,1-7-.7-2.45-1.7-4.79-3-7,.95-.62,1.78-.45,2.5.5,1.9-2.36,4.07-3.53,6.5-3.5-3.36-1.49-6.02-3.65-8-6.5Z"/>
    <path class="cls-104" d="M34.5,581.93c-12.2-17.16-17.37-36.16-15.5-57-3.9,21.07.76,40.4,14,58,.16.17.32.33.48.5.11.11.22.22.32.34,7.93,8.46,16.66,15.85,26.2,22.16-8.9-7.41-17.4-15.41-25.5-24Z"/>
    <path class="cls-20" d="M135,577.93c-.26,11.62.74,23.12,3,34.5-.07.77-.4,1.27-1,1.5-3.05-7.09-6.38-14.09-10-21-4.79-11.84-6.79-24.17-6-37h1c-.16,2.69,0,5.35.5,8,.3-4.39.97-8.73,2-13,.67,6.4,1.83,12.57,3.5,18.5l-1,1c1.59.86,3.25,1.53,5,2-.46.41-.79.91-1,1.5,1.66,3.4,2.5,7.06,2.5,11,.19-2.54.69-4.87,1.5-7Z"/>
    <path class="cls-68" d="M120,559.93c0,7.05.16,14.05.5,21-1.86-5.06-4.52-6.06-8-3-.87-.23-1.71-.57-2.5-1-1.09,1.23-2.42,2.06-4,2.5.46.41.79.91,1,1.5-1.03-.2-2.03.3-3,1.5.33.33.67.67,1,1-1.33,2-2.67,4-4,6,1.13,1.02.8,1.68-1,2,1.47.71,2.14,1.88,2,3.5h-4c2.67,6.67,5.33,13.33,8,20-5.67-9.01-10-18.67-13-29-.72-2.26-1.05-4.6-1-7,.81-2.13,1.31-4.46,1.5-7,.33.67.67,1.33,1,2,.36-3.04,1.03-3.38,2-1,.48-3.64,1.15-7.31,2-11,1.39,3.77,2.39,3.77,3,0,1.49.75,1.65,1.59.5,2.5,2.41.78,4.07-.05,5-2.5-.93-1.27-1.1-2.6-.5-4,1.16,2.3,2.16,1.96,3-1,.33,1.33.67,2.67,1,4,3.1-.79,3.26-1.96.5-3.5,3.69-1.71,6.69-.88,9,2.5Z"/>
    <path class="cls-59" d="M92,556.93c-1.24,7.35-1.24,14.68,0,22-.05,2.4.28,4.74,1,7-1.1,1.1-1.26,2.43-.5,4,1.11,3.99,2.61,7.83,4.5,11.5-.17.5-.33,1-.5,1.5-.67-1.33-1.33-1.33-2,0-.33,2-.67,4-1,6-2.85-.65-5.68-.98-8.5-1-1.31.81-2.48,1.81-3.5,3-.33-1.33-.67-2.67-1-4-1.02,2.53-2.18,2.53-3.5,0-1.9,1.97-4.23,3.3-7,4,1.29,1.03,1.29,2.03,0,3-5.35-9.36-9.35-19.36-12-30h3v-4c1.43-.08,2.76.25,4,1-.52-1.26.15-2.26,2-3,.6,1.22.76,2.55.5,4,1.12-1.45,1.78-3.12,2-5,.33.33.67.67,1,1,4.13-5.23,6.13-4.9,6,1-1.09-2.43-1.59-2.1-1.5,1,1.89-.2,3.39.46,4.5,2,.33-.33.67-.67,1-1,.33,1,.67,2,1,3,1.09-.79,2.25-1.46,3.5-2,.31-2.77.98-5.77,2-9,1,.33,1.67,1,2,2-.69,1.56-.52,3.23.5,5,.33-6.33.67-12.67,1-19,.21-1.56.71-2.89,1.5-4Z"/>
    <path class="cls-37" d="M633,570.93c7.41,13.67,12.74,28.17,16,43.5-.67.67-1.33.67-2,0-2.23-2.73-4.89-4.9-8-6.5-6.39-4.39-13.56-6.39-21.5-6-11.86.09-23.03,2.92-33.5,8.5-14.21,8.21-27.88,17.21-41,27-20.83,18-40.83,36.83-60,56.5.07-.44-.1-.77-.5-1-6,5.33-12,10.67-18,16-.37,1.99-1.21,3.66-2.5,5,.13-.74-.04-1.41-.5-2-5,5.67-10,11.33-15,17-5.42,7.91-10.59,15.91-15.5,24,2.47-12.27,7.64-23.27,15.5-33,30.59-36.26,64.09-69.42,100.5-99.5,14.33-10.84,29.67-20.17,46-28,11.34-3.34,22.68-6.67,34-10,3.73-2.96,5.73-6.79,6-11.5Z"/>
    <path class="cls-46" d="M121,555.93c-.79,12.83,1.21,25.16,6,37-.54.06-.88.39-1,1,2.73,4.44,4.57,9.11,5.5,14-.33-.67-.67-1.33-1-2-4.1,5.42-5.6,4.42-4.5-3-2.47.24-4.14,1.57-5,4-1.04-2.49-1.87-2.49-2.5,0-.12-4.89-1.45-5.22-4-1-.33-.33-.67-.67-1-1-.27,1.83-1.11,3.33-2.5,4.5,1.15.91.99,1.75-.5,2.5-.33-.33-.67-.67-1-1-.59,1.63-1.42,3.13-2.5,4.5.67,1.67,1.33,3.33,2,5-.07.77-.4,1.27-1,1.5-.39-1.78-1.06-3.45-2-5v-2c-2.67-6.67-5.33-13.33-8-20h4c.14-1.62-.53-2.79-2-3.5,1.8-.32,2.13-.98,1-2,1.33-2,2.67-4,4-6-.33-.33-.67-.67-1-1,.97-1.2,1.97-1.7,3-1.5-.21-.59-.54-1.09-1-1.5,1.58-.44,2.91-1.27,4-2.5.79.43,1.63.77,2.5,1,3.48-3.06,6.14-2.06,8,3-.34-6.95-.51-13.95-.5-21-.27-1.6.07-2.93,1-4Z"/>
    <path class="cls-33" d="M142,552.93c.32,2.22-.35,4.06-2,5.5,1.99.57,3.49,1.74,4.5,3.5,2.18-.61,4.18.06,6,2,.91-3.68,1.58-3.35,2,1,2.41-2.12,4.91-1.96,7.5.5-1,.33-2,.67-3,1,1.37,1.44,2.37,3.11,3,5-2.43.45-2.6,1.28-.5,2.5,1.56-.84,2.56-.18,3,2,.42-1.46,1.26-1.96,2.5-1.5,1.17,3.17,2.67,3.33,4.5.5.33,1,.67,2,1,3,.69-1.24,1.19-1.24,1.5,0-3.75,9.99-5.41,20.32-5,31-.81-1.79-1.31-3.79-1.5-6-.48.95-.65,1.95-.5,3-.8-1.45-1.3-3.12-1.5-5-2.31,2.11-4.64,3.44-7,4-.22-1.44-.72-2.77-1.5-4-.67.33-1.33.67-2,1-3.05-2.12-6.38-3.62-10-4.5-.61-1.95-1.44-3.78-2.5-5.5-.67,2.67-1.33,2.67-2,0-.33.67-.67,1.33-1,2-1.03-6.1-1.86-12.1-2.5-18-.11-4.83.72-9.5,2.5-14,.66-3.53,2.16-6.53,4.5-9Z"/>
    <path class="cls-26" d="M135,575.93c.64,5.9,1.47,11.9,2.5,18,.33-.67.67-1.33,1-2,.67,2.67,1.33,2.67,2,0,1.06,1.72,1.89,3.55,2.5,5.5,3.62.88,6.95,2.38,10,4.5.67-.33,1.33-.67,2-1,.78,1.23,1.28,2.56,1.5,4,2.36-.56,4.69-1.89,7-4,.2,1.88.7,3.55,1.5,5,.61,6.66,1.27,13.33,2,20,.1,2.43-.57,4.59-2,6.5,1.12,3.07,1.28,6.24.5,9.5-.31-.81-.81-1.47-1.5-2-2,2.67-4,2.67-6,0,.52-.69,1.19-1.19,2-1.5-.84-3.24-2.34-6.08-4.5-8.5-.25,1.12-.75,2.12-1.5,3-1.79-1.42-3.62-2.76-5.5-4,.25-4.45-.92-4.78-3.5-1-.69-.53-1.19-1.19-1.5-2,.33,5.98.33,11.98,0,18-.18-3.2-.68-6.2-1.5-9,.06-7.43-1.61-14.43-5-21,.6-.23.93-.73,1-1.5-2.26-11.38-3.26-22.88-3-34.5v-2Z"/>
    <path class="cls-101" d="M127,592.93c3.62,6.91,6.95,13.91,10,21-.54.06-.88.39-1,1,1.89,2.72,2.05,5.39.5,8-2.85-1.48-4.35-3.48-4.5-6-1.99.79-2.32,1.96-1,3.5-3.76,1.91-7.92,3.75-12.5,5.5-.13-4.45-.8-8.78-2-13-.72,1.61-.55,3.11.5,4.5-2.24,2.35-3.41,1.85-3.5-1.5-.21,3.32-1.38,6.16-3.5,8.5,1.63,3.58,1.97,7.08,1,10.5-.53-4.47-1.53-8.8-3-13,.6-.23.93-.73,1-1.5-.67-1.67-1.33-3.33-2-5,1.08-1.37,1.91-2.87,2.5-4.5.33.33.67.67,1,1,1.49-.75,1.65-1.59.5-2.5,1.39-1.17,2.23-2.67,2.5-4.5.33.33.67.67,1,1,2.55-4.22,3.88-3.89,4,1,.63-2.49,1.46-2.49,2.5,0,.86-2.43,2.53-3.76,5-4-1.1,7.42.4,8.42,4.5,3,.33.67.67,1.33,1,2-.93-4.89-2.77-9.56-5.5-14,.12-.61.46-.94,1-1Z"/>
    <path class="cls-7" d="M562,562.93c6.18-.45,12.18.05,18,1.5-9.66,3.31-18.66,7.98-27,14-20.47,16.8-39.3,35.3-56.5,55.5-9.38,10.37-18.38,21.04-27,32,11.09-23.13,24.75-44.8,41-65,8.57-9.23,17.73-17.73,27.5-25.5,7.65-4.99,15.65-9.16,24-12.5Z"/>
    <path class="cls-52" d="M462,494.93c8.78.52,17.45,2.02,26,4.5,3.4,1.4,6.24,3.57,8.5,6.5,6.92,12.97,8.42,26.64,4.5,41-1.51,5-3.51,9.67-6,14-2.24,4.19-4.41,8.52-6.5,13-.49-1.29-.66-2.63-.5-4-1.7.47-3.2.47-4.5,0-.33.67-.67,1.33-1,2-1.51-.76-2.85-1.76-4-3l-1.5,1.5c4.37,2.38,4.87,5.21,1.5,8.5-.31-.81-.81-1.47-1.5-2-1.23,1.15-1.23,2.32,0,3.5-1.8.32-2.13.98-1,2-2.28,2.09-4.94,3.59-8,4.5,2.63,1.51,2.3,2.17-1,2,.48,3.85-1.19,5.85-5,6-.94,3.46-2.94,6.29-6,8.5-40.61,37.09-87.61,48.75-141,35-28.82-10.47-39.65-30.64-32.5-60.5,5.37-7.51,11.2-13.84,17.5-19,1.45,1.44,2.45,3.11,3,5-4.83,7.31-6.66,15.31-5.5,24,1.34,10.05,6.17,17.71,14.5,23,9.11,6.71,19.45,10.21,31,10.5,30.73,1.49,58.73-6.35,84-23.5,6.04-3.2,11.71-7.03,17-11.5,14.27-12.92,26.27-27.59,36-44l-5.5-5.5c-7.57-12.95-11.74-26.95-12.5-42Z"/>
    <path class="cls-95" d="M93,585.93c3,10.33,7.33,19.99,13,29v2c-.54.06-.88.39-1,1,2.65,4.89,3.15,9.89,1.5,15-1-2.67-2-2.67-3,0-3.39-1.41-6.72-2.41-10-3-3.94.4-7.6.4-11,0-.69,2.39-1.69,2.39-3,0-.48.95-.65,1.95-.5,3h-4c-.6-6.2-2.6-11.87-6-17,.84-.34,1.17-1.01,1-2,1.29-.97,1.29-1.97,0-3,2.77-.7,5.1-2.03,7-4,1.32,2.53,2.48,2.53,3.5,0,.33,1.33.67,2.67,1,4,1.02-1.19,2.19-2.19,3.5-3,2.82.02,5.65.35,8.5,1,.33-2,.67-4,1-6,.67-1.33,1.33-1.33,2,0,.17-.5.33-1,.5-1.5-1.89-3.67-3.39-7.51-4.5-11.5-.76-1.57-.6-2.9.5-4Z"/>
    <path class="cls-100" d="M137,613.93c3.39,6.57,5.06,13.57,5,21,.8,11-1.2,21.34-6,31-2.61-.93-3.28-2.6-2-5-.5-.33-1-.67-1.5-1-1.01.39-1.51,1.06-1.5,2-1.93-.65-3.1-1.98-3.5-4l-1,1c-1.11-5.12-1.28-10.12-.5-15-4.59-.06-8.75-1.4-12.5-4-.36,4.16-1.19,7.49-2.5,10v-15c.97-3.42.63-6.92-1-10.5,2.12-2.34,3.29-5.18,3.5-8.5.09,3.35,1.26,3.85,3.5,1.5-1.05-1.39-1.22-2.89-.5-4.5,1.2,4.22,1.87,8.55,2,13,4.58-1.75,8.74-3.59,12.5-5.5-1.32-1.54-.99-2.71,1-3.5.15,2.52,1.65,4.52,4.5,6,1.55-2.61,1.39-5.28-.5-8,.12-.61.46-.94,1-1Z"/>
    <path class="cls-58" d="M136,665.93c-2.21,5.85-5.21,11.18-9,16,.07-.44-.1-.77-.5-1-.91.83-1.58,1.83-2,3-1.63-2.47-3.47-4.8-5.5-7-.93-1.19-1.26-2.52-1-4-2.09-.18-4.09.15-6,1-1.21-.77-1.21-1.61,0-2.5-1.2-.9-2.04-2.07-2.5-3.5-.33.33-.67.67-1,1-.36-3.04-1.03-3.38-2-1-.33-.33-.67-.67-1-1-.71.88-1.54,1.55-2.5,2,3.07-6.22,5.74-12.56,8-19,1.31-2.51,2.14-5.84,2.5-10,3.75,2.6,7.91,3.94,12.5,4-.78,4.88-.61,9.88.5,15l1-1c.4,2.02,1.57,3.35,3.5,4-.01-.94.49-1.61,1.5-2,.5.33,1,.67,1.5,1-1.28,2.4-.61,4.07,2,5Z"/>
    <path class="cls-98" d="M639,607.93c-.44-.07-.77.1-1,.5,1.33,1,2.67,2,4,3-.56.38-.89.88-1,1.5-11.78-4.65-23.78-5.15-36-1.5-18.74,6.53-35.41,16.36-50,29.5-1.05-.15-2.05.02-3,.5-8.67,7-17.33,14-26,21-13.81,13.48-27.98,26.64-42.5,39.5.35-2.11.18-4.11-.5-6v-2c19.17-19.67,39.17-38.5,60-56.5,13.12-9.79,26.79-18.79,41-27,10.47-5.58,21.64-8.41,33.5-8.5,7.94-.39,15.11,1.61,21.5,6Z"/>
    <path class="cls-86" d="M167,608.93c.64,7.35,1.47,14.68,2.5,22,.67,8,.67,16,0,24-3.53,13.42-10.37,24.75-20.5,34-1.35.74-3.02.74-5,0-3.34-2.18-6.5-4.51-9.5-7-.67-.67-.67-1.33,0-2,2.02,2.29,4.18,2.29,6.5,0-.6-1.29-1.1-2.63-1.5-4-.52,4.78-1.85,5.11-4,1-1,1.33-2,1.33-3,0-2.19,3.07-4.36,6.07-6.5,9,.33-1.33.67-2.67,1-4,3.79-4.82,6.79-10.15,9-16,4.8-9.66,6.8-20,6-31,.82,2.8,1.32,5.8,1.5,9,.33-6.02.33-12.02,0-18,.31.81.81,1.47,1.5,2,2.58-3.78,3.75-3.45,3.5,1,1.88,1.24,3.71,2.58,5.5,4,.75-.88,1.25-1.88,1.5-3,2.16,2.42,3.66,5.26,4.5,8.5-.81.31-1.48.81-2,1.5,2,2.67,4,2.67,6,0,.69.53,1.19,1.19,1.5,2,.78-3.26.62-6.43-.5-9.5,1.43-1.91,2.1-4.07,2-6.5-.73-6.67-1.39-13.34-2-20-.15-1.05.02-2.05.5-3,.19,2.21.69,4.21,1.5,6Z"/>
    <path class="cls-64" d="M68,614.93c.67,0,1,.33,1,1,3.4,5.13,5.4,10.8,6,17h4c-.15-1.05.02-2.05.5-3,1.31,2.39,2.31,2.39,3,0,3.4.4,7.06.4,11,0,3.28.59,6.61,1.59,10,3,1-2.67,2-2.67,3,0,1.65-5.11,1.15-10.11-1.5-15,.12-.61.46-.94,1-1,.94,1.55,1.61,3.22,2,5,1.47,4.2,2.47,8.53,3,13v15c-2.26,6.44-4.93,12.78-8,19-4.68,5.68-10.01,10.68-16,15-1.21.43-2.21,1.1-3,2-23.97,9.79-42.3,3.46-55-19,20.12,5.03,34.62-1.97,43.5-21,2.2-10.53.7-20.53-4.5-30v-1Z"/>
    <path class="cls-6" d="M127,681.93c-.33,1.33-.67,2.67-1,4-6.18,8.59-8.52,18.26-7,29-.67-3.33-1.33-6.67-2-10,.48-2.56,1.15-5.06,2-7.5-2-.33-4-.67-6-1,.56-1.57-.11-2.9-2-4-1.47-.64-2.8-1.47-4-2.5-.59.21-1.09.54-1.5,1-.46-1.24.04-2.08,1.5-2.5-2.21-.94-3.54-2.6-4-5-2.19.23-4.52-.11-7-1-.63-.75-1.13-1.58-1.5-2.5-2.32,1.26-4.65,3.26-7,6-.46-.59-.63-1.26-.5-2,5.99-4.32,11.32-9.32,16-15,.96-.45,1.79-1.12,2.5-2,.33.33.67.67,1,1,.97-2.38,1.64-2.04,2,1,.33-.33.67-.67,1-1,.46,1.43,1.3,2.6,2.5,3.5-1.21.89-1.21,1.73,0,2.5,1.91-.85,3.91-1.18,6-1-.26,1.48.07,2.81,1,4,2.03,2.2,3.87,4.53,5.5,7,.42-1.17,1.09-2.17,2-3,.4.23.57.56.5,1Z"/>
    <path class="cls-38" d="M203,706.93c-.31,1.24-.81,1.24-1.5,0-.8-2.74-1.8-5.41-3-8-.28.92-.78,1.58-1.5,2-2-1.83-4.33-2.33-7-1.5-2.83,4.49-4.99,9.33-6.5,14.5-10.23,44.59-18.07,89.59-23.5,135-.66-1.12-.99-2.45-1-4,3.01-33.73,6.67-67.4,11-101,.77-5.7-1.56-8.53-7-8.5-4.67,4.84-7,10.68-7,17.5h-3c-2.47-1.07-4.8-2.4-7-4v-1c1.54.2,2.88.87,4,2-1.8-12.4.36-24.07,6.5-35,7.63-9.3,15.63-18.3,24-27,4.58-6.16,8.91-12.49,13-19,2.23,12.93,5.4,25.6,9.5,38Z"/>
    <path class="cls-49" d="M149,688.93c-2.62,3.79-5.45,7.46-8.5,11-10.03,17.42-8.2,33.42,5.5,48v1c-7.25-3.8-13.58-8.8-19-15-4.58-5.5-7.25-11.83-8-19-1.52-10.74.82-20.41,7-29,2.14-2.93,4.31-5.93,6.5-9,1,1.33,2,1.33,3,0,2.15,4.11,3.48,3.78,4-1,.4,1.37.9,2.71,1.5,4-2.32,2.29-4.48,2.29-6.5,0-.67.67-.67,1.33,0,2,3,2.49,6.16,4.82,9.5,7,1.98.74,3.65.74,5,0Z"/>
    <path class="cls-18" d="M117,704.93v7c-.48-2.55-1.48-4.88-3-7-1.2.35-1.2.85,0,1.5-3.47-.1-6.3-1.6-8.5-4.5-1.84,1.33-2.34,1.17-1.5-.5-1.21-2.1-2.05-1.93-2.5.5-2-1.33-4-2.67-6-4-1.02,1.13-1.68.8-2-1-2.01,3.5-3.34,3.5-4,0-1.02,1.13-1.68.8-2-1-.33.67-.67,1.33-1,2-.18-2.86-.68-5.53-1.5-8,1.19-1.46,1.19-2.79,0-4h-1c.79-.9,1.79-1.57,3-2-.13.74.04,1.41.5,2,2.35-2.74,4.68-4.74,7-6,.37.92.87,1.75,1.5,2.5,2.48.89,4.81,1.23,7,1,.46,2.4,1.79,4.06,4,5-1.46.42-1.96,1.26-1.5,2.5.41-.46.91-.79,1.5-1,1.2,1.03,2.53,1.86,4,2.5,1.89,1.1,2.56,2.43,2,4,2,.33,4,.67,6,1-.85,2.44-1.52,4.94-2,7.5Z"/>
    <path class="cls-48" d="M483,693.93v2c-3,11.33-6,22.67-9,34,.17-4.01,0-8.01-.5-12-1.87-1.17-3.7-1.01-5.5.5-2.9,2.73-5.57,5.56-8,8.5.51-4.36,1.17-8.69,2-13,1.29-1.34,2.13-3.01,2.5-5,6-5.33,12-10.67,18-16,.4.23.57.56.5,1Z"/>
    <path class="cls-43" d="M85,689.93c.82,2.47,1.32,5.14,1.5,8,.33-.67.67-1.33,1-2,.32,1.8.98,2.13,2,1,.66,3.5,1.99,3.5,4,0,.32,1.8.98,2.13,2,1,2,1.33,4,2.67,6,4,.45-2.43,1.29-2.6,2.5-.5-.84,1.67-.34,1.83,1.5.5,2.2,2.9,5.03,4.4,8.5,4.5-1.2-.65-1.2-1.15,0-1.5,1.52,2.12,2.52,4.45,3,7,.79,3.71.79,7.38,0,11-.67-.67-1.33-1.33-2-2-5.12.43-10.29-.91-15.5-4-2.62.26-5.62.6-9,1-.42-1.17-1.09-2.17-2-3-.4.23-.57.56-.5,1-3.83-8.28-4.83-16.94-3-26Z"/>
    <path class="cls-81" d="M203,706.93c.81,1.76,1.81,3.43,3,5,2.17,21.63,2.33,43.3.5,65l-1,1c-2.74-8.51-4.74-17.17-6-26-6.9,41.55-12.9,83.21-18,125-3.87,4.57-7.37,9.4-10.5,14.5-6.79,1.38-10.13-1.45-10-8.5.16-4.35,1.16-8.35,3-12,5.81-.31,9.31-3.31,10.5-9,4.53-51.76,12.7-102.93,24.5-153.5-.45-2.59-1.11-5.09-2-7.5.72-.42,1.22-1.08,1.5-2,1.2,2.59,2.2,5.26,3,8,.69,1.24,1.19,1.24,1.5,0Z"/>
    <path class="cls-5" d="M311,746.93c-9.55,4.03-18.21,9.53-26,16.5-5.88,6.37-11.54,12.87-17,19.5.1-1.72.1-3.55,0-5.5,1.79-.2,3.12-1.03,4-2.5-.67-.33-1.33-.67-2-1-.14-2.68.2-5.18,1-7.5-1-.67-2-.67-3,0,1.15.91.99,1.75-.5,2.5-.77-1.9-.44-3.57,1-5,1.61.65,3.11.15,4.5-1.5-.92-.37-1.75-.87-2.5-1.5-1.67,1.33-3.33,2.67-5,4-.36-3.04-1.03-3.38-2-1-2.17-1.13-2.67-2.63-1.5-4.5-1-.67-2-.67-3,0,1.21.89,1.21,1.73,0,2.5-.69-.53-1.19-1.19-1.5-2-2.15.73-4.32,1.4-6.5,2,7.83-13.83,18.16-25.49,31-35,12.58-7.81,26.25-12.97,41-15.5,15.06-1.61,29.73.06,44,5-22.67,3.16-41.34,13.33-56,30.5Z"/>
    <path class="cls-11" d="M117,704.93c.67,3.33,1.33,6.67,2,10,.75,7.17,3.42,13.5,8,19-.36,3.02-1.02,6.35-2,10-1.35-1.02-2.35-2.35-3-4-.81.31-1.48.81-2,1.5,1.33,1.84,1.17,2.34-.5,1.5-1.02,1.19-2.19,2.19-3.5,3-9.64-5.14-17.14-12.47-22.5-22-.69-1.24-1.19-1.24-1.5,0-1.84-2.35-3.17-5.02-4-8-.07-.44.1-.77.5-1,.91.83,1.58,1.83,2,3,3.38-.4,6.38-.74,9-1,5.21,3.09,10.38,4.43,15.5,4,.67.67,1.33,1.33,2,2,.79-3.62.79-7.29,0-11v-7Z"/>
    <path class="cls-8" d="M462,713.93c-.83,4.31-1.49,8.64-2,13-1.44,2.09-2.11,4.42-2,7-.74-.13-1.41.04-2,.5-18.15,21.16-31.65,45-40.5,71.5,3.64-18.09,8.81-35.76,15.5-53,4.91-8.09,10.08-16.09,15.5-24,5-5.67,10-11.33,15-17,.46.59.63,1.26.5,2Z"/>
    <path class="cls-31" d="M127,733.93c5.42,6.2,11.75,11.2,19,15,2.2,1.6,4.53,2.93,7,4v2c-21.81,1.84-40.15-5.16-55-21-1.99-3.31-3.99-6.64-6-10,.31-1.24.81-1.24,1.5,0,5.36,9.53,12.86,16.86,22.5,22,1.31-.81,2.48-1.81,3.5-3,1.67.84,1.83.34.5-1.5.52-.69,1.19-1.19,2-1.5.65,1.65,1.65,2.98,3,4,.98-3.65,1.64-6.98,2-10Z"/>
    <path class="cls-66" d="M197,700.93c.89,2.41,1.55,4.91,2,7.5-11.8,50.57-19.97,101.74-24.5,153.5-1.19,5.69-4.69,8.69-10.5,9-1.6-1.1-3.1-2.43-4.5-4-.7-6.04-.53-12.04.5-18,5.43-45.41,13.27-90.41,23.5-135,1.51-5.17,3.67-10.01,6.5-14.5,2.67-.83,5-.33,7,1.5Z"/>
    <path class="cls-63" d="M555,640.93c-25.71,23.2-47.54,49.54-65.5,79-4.02,8.23-6.52,16.9-7.5,26-9.12,46.49-15.62,93.5-19.5,141-1.23,3.23-3.23,5.9-6,8-1.09,7.44-5.25,10.6-12.5,9.5-1.17-1.17-2.33-2.33-3.5-3.5-.5-4.65-.67-9.32-.5-14,.96-1.76,1.29-3.76,1-6,6.91,1.58,11.08-1.08,12.5-8,3.8-48.13,10.63-95.79,20.5-143,3-11.33,6-22.67,9-34,.68,1.89.85,3.89.5,6,14.52-12.86,28.69-26.02,42.5-39.5,8.67-7,17.33-14,26-21,.95-.48,1.95-.65,3-.5Z"/>
    <path class="cls-29" d="M268,782.93v1c-3.63,3.91-6.8,8.24-9.5,13-11.67,21.86-16.51,45.2-14.5,70-1.96-2.68-3.46-5.68-4.5-9-5.09-16.3-6.75-32.97-5-50,1.89-16.75,7.39-32.08,16.5-46,2.18-.6,4.35-1.27,6.5-2,.31.81.81,1.47,1.5,2,1.21-.77,1.21-1.61,0-2.5,1-.67,2-.67,3,0-1.17,1.87-.67,3.37,1.5,4.5.97-2.38,1.64-2.04,2,1,1.67-1.33,3.33-2.67,5-4,.75.63,1.58,1.13,2.5,1.5-1.39,1.65-2.89,2.15-4.5,1.5-1.44,1.43-1.77,3.1-1,5,1.49-.75,1.65-1.59.5-2.5,1-.67,2-.67,3,0-.8,2.32-1.14,4.82-1,7.5.67.33,1.33.67,2,1-.88,1.47-2.21,2.3-4,2.5.1,1.95.1,3.78,0,5.5Z"/>
    <path class="cls-84" d="M98,733.93c14.85,15.84,33.19,22.84,55,21-.54,3.47-1.71,7.14-3.5,11-1.73,2.12-3.9,3.62-6.5,4.5-7.7,1.57-15.37,1.74-23,.5.62-4.83,1.29-9.66,2-14.5-.33-1.17-.67-2.33-1-3.5-1.47-.22-2.97-.56-4.5-1-1.12,1.45-1.78,3.12-2,5-9.66,64.26-12.16,128.75-7.5,193.5-.82,10.09-1.32,20.26-1.5,30.5-.49,7.58-1.65,14.91-3.5,22,.13-.74-.04-1.41-.5-2-.33,1-.67,2-1,3-3.96-12.85-9.29-25.19-16-37-1.37-2.77-3.2-5.1-5.5-7-6.23-8.4-13.06-16.4-20.5-24-1.62-4.4-4.12-8.23-7.5-11.5,10.92,2.48,21.26,6.65,31,12.5,3.39-55.79,6.05-111.63,8-167.5.08-10.25-.76-20.42-2.5-30.5-1.3-1.06-2.46-2.23-3.5-3.5,1.91-1.85,2.58-3.85,2-6,2.26-.24,4.43-.74,6.5-1.5,1.33,2.5,3.16,4.5,5.5,6Z"/>
    <path class="cls-61" d="M300,764.93c.54.06.88.39,1,1-9.47,22.77-10.47,45.93-3,69.5-.07.76-.4,1.26-1,1.5-2.3-7.18-3.96-14.52-5-22-.88-6.62-1.21-13.29-1-20,1.43-10.37,4.43-20.37,9-30Z"/>
    <path class="cls-55" d="M474,729.93c-9.87,47.21-16.7,94.87-20.5,143-1.42,6.92-5.59,9.58-12.5,8-1.97-1.15-3.47-2.81-4.5-5,3.59-47.86,10.75-95.19,21.5-142-.11-2.58.56-4.91,2-7,2.43-2.94,5.1-5.77,8-8.5,1.8-1.51,3.63-1.67,5.5-.5.5,3.99.67,7.99.5,12Z"/>
    <path class="cls-41" d="M44,1081.43c-14.86-7.52-28.03-17.35-39.5-29.5-1.13-2.22-1.96-4.56-2.5-7,.92-6.88,2.25-13.55,4-20,16.99-82.29,33.82-164.62,50.5-247,3.67-13.67,7.33-27.34,11-41,4.8-13.26,9.3-26.59,13.5-40-1.69,2.42-2.8,4.53-3.5,6-1.14,2.39-1.58,3.93-4.04,11.13-.66,1.92-1.19,3.48-1.52,4.44-.01.02-.02.03-.04.05-9.9,30.87-16.37,56.25-20.4,73.39-9.01,38.34-16.74,82.1-24.16,117.75-2.5,11.99-5.19,24.85-5.19,24.85-1.71,8.15-3.1,14.73-3.94,18.73-.47,2.21-2.49,11.79-2.95,14.01-.2.97-1.71,8.1-1.92,9.07-7.01,35.24-12.1,60.64-12.84,63.6C.4,1040.31,0,1041.85,0,1043.93c0,1.33.17,2.66.5,4,3.36,6.37,7.86,11.87,13.5,16.5,10.93,8.08,22.41,15.21,34.43,21.41.4.14.76.33,1.08.56,7.61,3.88,15.44,7.39,23.5,10.53-.67-.67-1.33-1.33-2-2-8.91-4.45-17.91-8.95-27-13.5Z"/>
    <path class="cls-44" d="M120,770.93c-6.46,39.73-8.96,79.73-7.5,120,1.19,20.5,2.36,41,3.5,61.5-.56,19.68-2.72,39.18-6.5,58.5-6.1,29.91-11.76,59.91-17,90-.24,1.62-1.07,2.62-2.5,3-5.99-1.77-11.65-4.1-17-7-.67-.67-1.33-1.33-2-2,4.5,1.92,9.17,3.25,14,4,6.1-31.92,11.76-63.92,17-96,1.85-7.09,3.01-14.42,3.5-22,.18-10.24.68-20.41,1.5-30.5-4.66-64.75-2.16-129.24,7.5-193.5.22-1.88.88-3.55,2-5,1.53.44,3.03.78,4.5,1,.33,1.17.67,2.33,1,3.5-.71,4.84-1.38,9.67-2,14.5Z"/>
    <path class="cls-25" d="M762.5,977.93c-8.78-70.6-19.97-140.81-33.57-210.63-.09-.31-.16-.62-.18-.93-.74-3.81-1.49-7.63-2.25-11.44-2.41-12-5.58-23.66-9.5-35,.13.74-.04,1.41-.5,2-3.05-6.47-5.72-13.14-8-20-2.02-4.72-4.52-9.06-7.5-13,8.86,25.09,15.69,50.75,20.5,77,10.41,61.35,18.41,123.02,24,185,2.29,27.63-.71,54.63-9,81-5.2,13.41-12.2,25.74-21,37-11.97,13.31-25.14,25.15-39.5,35.5-42.7,14.42-86.36,24.92-131,31.5-.33.67-.67,1.33-1,2,27.12-3.82,53.88-9.09,80.29-15.8.25-.13.52-.25.82-.34,2.23-.72,4.52-1.19,6.81-1.64,6.75-1.79,13.47-3.68,20.17-5.66.92-.28,1.84-.55,2.75-.83,10.11-3.03,20.17-6.26,30.17-9.73,13.08-5.71,26.08-11.71,39-18,3.09-2.3,6.28-4.5,9.55-6.6.25-.22.5-.45.75-.67,7.25-6.51,14.28-14.32,20.7-23.72,8.93-24.99,11.43-50.65,7.5-77Z"/>
    <path class="cls-34" d="M292,814.93c1.04,7.48,2.7,14.82,5,22,17.12,37.56,46.12,52.4,87,44.5,6.88-3.76,7.71-2.6,2.5,3.5-3.04,2.87-5.87,5.87-8.5,9-17.67,14.34-38,21.34-61,21-.11-.62-.44-1.12-1-1.5,15.05.32,29.38-2.68,43-9-17.33,2.77-33.67-.07-49-8.5-6.75-4.2-12.41-9.54-17-16-10.49-19.48-11.65-39.48-3.5-60,.33,1,.67,2,1,3,.18-2.86.68-5.53,1.5-8Z"/>
    <path class="cls-71" d="M285,763.43c-5.88,6.37-11.54,12.87-17,19.5v1c-3.63,3.91-6.8,8.24-9.5,13-11.67,21.86-16.51,45.2-14.5,70,1.16,3.65,2.83,6.98,5,10,2.26,4.59,5.26,8.59,9,12,1.05-.27,2.39-.44,4-.5,3.01-2.63,2.67-4.63-1-6,.93-.39,1.59-1.05,2-2,.19-3.19-.15-6.19-1-9,.67-.33,1.33-.67,2-1-3.67-1.41-3.67-3.08,0-5-1.25-1.46-1.25-2.96,0-4.5-.48-.98-1.14-1.81-2-2.5,2.14-2.07,2.81-4.4,2-7,1.54-2.92,3.21-5.75,5-8.5-.94-1.97-.28-3.47,2-4.5-1.79-2.26-1.12-4.09,2-5.5.78-1.23,1.28-2.56,1.5-4,1.64,1.35,3.14,1.18,4.5-.5-.67-.33-1.33-.67-2-1,.8-1.77,1.97-3.27,3.5-4.5,1.23,2.45,2.73,2.61,4.5.5l-1-1c1.55-1.44,2.38-3.27,2.5-5.5.74-1.14,1.58-1.14,2.5,0,.99-3.61,1.32-7.27,1-11v-8c-.16-1.7,0-3.37.5-5,.46.59.63,1.26.5,2,1.43-10.37,4.43-20.37,9-30,2.85-6.51,6.51-12.51,11-18-9.55,4.03-18.21,9.53-26,16.5Z"/>
    <path class="cls-51" d="M293,879.93c-10.49-19.48-11.65-39.48-3.5-60,.33,1,.67,2,1,3,.18-2.86.68-5.53,1.5-8-.88-6.62-1.21-13.29-1-20,.13-.74-.04-1.41-.5-2-.49,1.63-.66,3.3-.5,5v8c.32,3.73-.01,7.39-1,11-.92-1.14-1.76-1.14-2.5,0-.12,2.23-.95,4.06-2.5,5.5l1,1c-1.77,2.11-3.27,1.95-4.5-.5-1.53,1.23-2.7,2.73-3.5,4.5.67.33,1.33.67,2,1-1.36,1.68-2.86,1.85-4.5.5-.22,1.44-.72,2.77-1.5,4-3.12,1.41-3.79,3.24-2,5.5-2.28,1.03-2.94,2.53-2,4.5-1.79,2.75-3.46,5.58-5,8.5.81,2.6.14,4.93-2,7,.86.69,1.52,1.52,2,2.5-1.25,1.54-1.25,3.04,0,4.5-3.67,1.92-3.67,3.59,0,5-.67.33-1.33.67-2,1,.85,2.81,1.19,5.81,1,9-.41.95-1.07,1.61-2,2,3.67,1.37,4.01,3.37,1,6-1.61.06-2.95.23-4,.5,2.4,3.4,5.4,6.07,9,8,5.66,5.51,12.33,9.51,20,12,.23-.6.73-.93,1.5-1,3.74,1.56,7.58,2.4,11.5,2.5-1.46-.42-1.96-1.26-1.5-2.5.67,1.33,1.33,1.33,2,0,.36-3.04,1.03-3.38,2-1,1.02-1.39,1.85-2.89,2.5-4.5-2.67-.67-2.67-1.33,0-2-1.05-1.38-2.38-2.38-4-3,1.8-.64,3.14-1.8,4-3.5,1.33,1,2.67,2,4,3,.61-.12.94-.46,1-1-6.75-4.2-12.41-9.54-17-16Z"/>
    <path class="cls-94" d="M310,895.93c15.33,8.43,31.67,11.27,49,8.5-13.62,6.32-27.95,9.32-43,9,.56.38.89.88,1,1.5-10.43-.09-20.43-2.09-30-6,.23-.6.73-.93,1.5-1,3.74,1.56,7.58,2.4,11.5,2.5-1.46-.42-1.96-1.26-1.5-2.5.67,1.33,1.33,1.33,2,0,.36-3.04,1.03-3.38,2-1,1.02-1.39,1.85-2.89,2.5-4.5-2.67-.67-2.67-1.33,0-2-1.05-1.38-2.38-2.38-4-3,1.8-.64,3.14-1.8,4-3.5,1.33,1,2.67,2,4,3,.61-.12.94-.46,1-1Z"/>
    <path class="cls-45" d="M272,531.93c-4.01,3.43-8.17,6.77-12.5,10-12.78,17.22-22.11,36.22-28,57-9.84,40.04-14.34,80.71-13.5,122-4.01,23.91-7.51,47.91-10.5,72-11.46,111.51-20.96,223.18-28.5,335v2c-30.59-5.87-60.26-14.53-89-26,1.43-.38,2.26-1.38,2.5-3,5.24-30.09,10.9-60.09,17-90,3.78-19.32,5.94-38.82,6.5-58.5-1.14-20.5-2.31-41-3.5-61.5-1.46-40.27,1.04-80.27,7.5-120,7.63,1.24,15.3,1.07,23-.5,2.6-.88,4.77-2.38,6.5-4.5,1.79-3.86,2.96-7.53,3.5-11v-2h3c0-6.82,2.33-12.66,7-17.5,5.44-.03,7.77,2.8,7,8.5-4.33,33.6-7.99,67.27-11,101,.01,1.55.34,2.88,1,4-1.03,5.96-1.2,11.96-.5,18,1.4,1.57,2.9,2.9,4.5,4-1.84,3.65-2.84,7.65-3,12-.13,7.05,3.21,9.88,10,8.5,3.13-5.1,6.63-9.93,10.5-14.5,5.1-41.79,11.1-83.45,18-125,1.26,8.83,3.26,17.49,6,26l1-1c1.83-21.7,1.67-43.37-.5-65-1.63-22.04-1.29-44.04,1-66,.86-12.14,2.69-24.14,5.5-36,8.73-34.55,28.56-60.55,59.5-78Z"/>
    <path class="cls-81" d="M101.55,1000.77c-.34,1-.67,2-1.01,3-4-12.85-9.39-25.19-16.17-37-1.39-2.77-3.24-5.1-5.56-7-6.29-8.4-13.2-16.4-20.72-24-1.63-4.4-4.16-8.23-7.58-11.5,11.04,2.48,21.48,6.65,31.33,12.5,3.42-55.79,6.12-111.63,8.08-167.5.08-10.25-.76-20.42-2.53-30.5-1.31-1.06-2.49-2.23-3.54-3.5,1.93-1.85,2.61-3.85,2.02-6,2.29-.24,4.48-.74,6.57-1.5,1.34,2.5,3.2,4.5,5.56,6-2.01-3.31-4.03-6.64-6.06-10-1.86-2.35-3.21-5.02-4.04-8-3.87-8.28-4.88-16.94-3.03-26,1.2-1.46,1.2-2.8,0-4-2.15,3.37-3.49,7.03-4.04,11-4.25,13.41-8.79,26.74-13.64,40-3.7,13.66-7.41,27.33-11.12,41-16.85,82.38-33.86,164.71-51.03,247-1.76,6.45-3.11,13.12-4.04,20,.08.87.27,2.06.81,3.38.69,1.72,1.65,2.92,2.32,3.65,3.91,4.33,9.76,10.2,17.68,16.17,5.11,3.85,10.26,7.67,21.63,13.3,9.19,4.55,18.28,9.05,27.28,13.5,4.55,1.92,9.27,3.25,14.15,4,6.16-31.92,11.89-63.92,17.18-96,.13-.74-.04-1.41-.51-2Z"/>
    <path class="cls-73" d="M689,945.93c-22.84-1.12-44.17,4.04-64,15.5-9.22,5.22-17.88,11.22-26,18-7.95,7.78-15.61,15.61-23,23.5-1.21-19.22-4.04-38.22-8.5-57-6-23.34-12-46.68-18-70-2.62-13.21-4.12-26.55-4.5-40-2.28-53.87,10.88-103.54,39.5-149,11.41-17.42,25.58-32.25,42.5-44.5,3.93-2.14,7.93-3.97,12-5.5,9.14-4.32,18.14-3.99,27,1,.33-.17.67-.33,1-.5-2.04-2.34-4.37-4.17-7-5.5-12.96-4.58-25.29-3.08-37,4.5-18.26,12.26-33.09,27.76-44.5,46.5-28.4,46.62-42.4,97.29-42,152-5.82-18.59-9.82-37.59-12-57-2.04,7.9-3.54,15.9-4.5,24-3.87,28.38-4.87,56.71-3,85,.17,18,0,36-.5,54-3.21,22.55-7.38,44.89-12.5,67,.74,14.47,2.58,28.8,5.5,43,6.2,21.77,12.7,43.44,19.5,65,2.2,7.28,4.2,14.61,6,22,0,.67.33,1,1,1,2.78.22,5.45-.11,8-1,.33-.67.67-1.33,1-2-2.36-6.1-4.36-12.43-6-19,3.97-16.9,9.3-33.23,16-49,5.24-15.15,11.58-29.82,19-44,6.5-6.33,13.16-12.5,20-18.5,7.68-4.84,15.68-9.18,24-13,28.95-9.82,57.95-19.49,87-29,2.91-1.86,4.41-4.36,4.5-7.5-5.92-5.35-12.75-8.69-20.5-10Z"/>
    <path class="cls-85" d="M745.5,950.93c-5.59-61.98-13.59-123.65-24-185-4.81-26.25-11.64-51.91-20.5-77-9.41-22.07-22.41-41.74-39-59l-2,2c2.63,1.33,4.96,3.16,7,5.5-.33.17-.67.33-1,.5-8.86-4.99-17.86-5.32-27-1-4.07,1.53-8.07,3.36-12,5.5-16.92,12.25-31.09,27.08-42.5,44.5-28.62,45.46-41.78,95.13-39.5,149,.38,13.45,1.88,26.79,4.5,40,6,23.32,12,46.66,18,70,4.46,18.78,7.29,37.78,8.5,57,7.39-7.89,15.05-15.72,23-23.5,8.12-6.78,16.78-12.78,26-18,19.83-11.46,41.16-16.62,64-15.5,7.75,1.31,14.58,4.65,20.5,10-.09,3.14-1.59,5.64-4.5,7.5-29.05,9.51-58.05,19.18-87,29-8.32,3.82-16.32,8.16-24,13-6.84,6-13.5,12.17-20,18.5-7.42,14.18-13.76,28.85-19,44-6.7,15.77-12.03,32.1-16,49,1.64,6.57,3.64,12.9,6,19,44.64-6.58,88.3-17.08,131-31.5,14.36-10.35,27.53-22.19,39.5-35.5,8.8-11.26,15.8-23.59,21-37,8.29-26.37,11.29-53.37,9-81Z"/>
    <path class="cls-45" d="M641,612.93c-11.78-4.65-23.78-5.15-36-1.5-18.74,6.53-35.41,16.36-50,29.5-25.71,23.2-47.54,49.54-65.5,79-4.02,8.23-6.52,16.9-7.5,26-9.12,46.49-15.62,93.5-19.5,141-1.23,3.23-3.23,5.9-6,8-1.09,7.44-5.25,10.6-12.5,9.5-1.17-1.17-2.33-2.33-3.5-3.5-.5-4.65-.67-9.32-.5-14,.96-1.76,1.3-3.76,1-6-1.97-1.15-3.47-2.81-4.5-5,3.59-47.86,10.75-95.19,21.5-142-.74-.13-1.41.04-2,.5-18.15,21.16-31.65,45-40.5,71.5,3.64-18.09,8.81-35.76,15.5-53,2.47-12.27,7.64-23.27,15.5-33,30.59-36.26,64.09-69.42,100.5-99.5,14.33-10.84,29.67-20.17,46-28,11.34-3.34,22.68-6.67,34-10,3.73-2.96,5.73-6.79,6-11.5-17.2-31.74-43.53-44.07-79-37,.11-12.36-3.89-23.03-12-32-16.66,12.37-30.33,27.37-41,45-1.51,5-3.51,9.67-6,14-7.61,18.55-16.27,36.55-26,54-10.98,24.3-21.15,48.97-30.5,74-18.72,55.78-29.56,113.12-32.5,172-2.38,23.97-4.38,47.97-6,72-2.64,53.17-5.64,106.17-9,159-.49,18.68-1.16,37.34-2,56,24.35-.22,48.69-1.05,73-2.5,24.35-2.32,48.68-4.82,73-7.5-1.8-7.39-3.8-14.72-6-22-6.8-21.56-13.3-43.23-19.5-65-2.92-14.2-4.76-28.53-5.5-43,5.12-22.11,9.29-44.45,12.5-67,.5-18,.67-36,.5-54-1.87-28.29-.87-56.62,3-85,.96-8.1,2.46-16.1,4.5-24,2.18,19.41,6.18,38.41,12,57-.4-54.71,13.6-105.38,42-152,11.41-18.74,26.24-34.24,44.5-46.5,11.71-7.58,24.04-9.08,37-4.5l2-2c-6.05-6.85-13.05-12.52-21-17Z"/>
    <path class="cls-30" d="M488.5,573.93c-.49-1.29-.66-2.63-.5-4-1.7.47-3.2.47-4.5,0-.33.67-.67,1.33-1,2-1.51-.76-2.85-1.76-4-3l-1.5,1.5c4.37,2.38,4.87,5.21,1.5,8.5-.31-.81-.81-1.47-1.5-2-1.23,1.15-1.23,2.32,0,3.5-1.8.32-2.13.98-1,2-2.28,2.09-4.94,3.59-8,4.5,2.63,1.51,2.3,2.17-1,2,.48,3.85-1.19,5.85-5,6-.94,3.46-2.94,6.29-6,8.5-40.61,37.09-87.61,48.75-141,35-28.82-10.47-39.65-30.64-32.5-60.5,5.37-7.51,11.2-13.84,17.5-19,1.45,1.44,2.45,3.11,3,5,.9-.79,1.57-1.79,2-3,3.15-9.1,3.82-18.44,2-28-21.72,17.23-38.89,38.23-51.5,63-14.02,30.43-24.19,62.09-30.5,95-1.96,10.08-4.3,20.08-7,30-4.01,23.91-7.51,47.91-10.5,72-11.46,111.51-20.96,223.18-28.5,335v2c3.89.97,7.8,1.88,11.73,2.75.41.04.79.13,1.15.25,9.91,2.16,19.95,4,30.13,5.5,28.66,4.34,57.4,7.45,86.22,9.35.03,0,.05,0,.08,0,.27,0,.53.02.78.06,26.57,1.73,53.21,2.44,79.92,2.09v-2c.84-18.66,1.51-37.32,2-56,.04-.27.05-.54.05-.81,3.34-52.56,6.32-105.29,8.95-158.19,1.62-24.03,3.62-48.03,6-72,2.94-58.88,13.78-116.22,32.5-172,9.35-25.03,19.52-49.7,30.5-74,9.73-17.45,18.39-35.45,26-54-2.24,4.19-4.41,8.52-6.5,13ZM386.5,884.93c-3.04,2.87-5.87,5.87-8.5,9-17.67,14.34-38,21.34-61,21-10.43-.09-20.43-2.09-30-6-7.67-2.49-14.34-6.49-20-12-3.6-1.93-6.6-4.6-9-8-3.74-3.41-6.74-7.41-9-12-2.17-3.02-3.84-6.35-5-10-1.96-2.68-3.46-5.68-4.5-9-5.09-16.3-6.75-32.97-5-50,1.89-16.75,7.39-32.08,16.5-46,7.83-13.83,18.16-25.49,31-35,12.58-7.81,26.25-12.97,41-15.5,15.06-1.61,29.73.06,44,5-22.67,3.16-41.34,13.33-56,30.5-4.49,5.49-8.15,11.49-11,18,.54.06.88.39,1,1-9.47,22.77-10.47,45.93-3,69.5-.07.76-.4,1.26-1,1.5,17.12,37.56,46.12,52.4,87,44.5,6.88-3.76,7.71-2.6,2.5,3.5Z"/>
    <path class="cls-30" d="M390.99,1090.48c.03.21.05.42.05.64,0-.21-.02-.43-.05-.64Z"/>
    <path class="cls-30" d="M390.5,1088.93c.11.21.19.43.27.64-.08-.22-.16-.43-.27-.64Z"/>
    <path class="cls-30" d="M390.84,1089.78c.05.15.08.3.11.46-.03-.15-.07-.31-.11-.46Z"/>
    <path class="cls-12" d="M535,1137.93c0,.67.33,1,1,1-48.58,7.38-97.58,11.04-147,11v-2c24.35-.22,48.69-1.05,73-2.5,24.35-2.32,48.68-4.82,73-7.5Z"/>
  </g>
</svg>